<mxfile host="100897a9-5d29-45fb-97a7-f201e6031100" modified="2020-08-25T04:15:22.979Z" agent="5.0 (Windows NT 10.0; Win64; x64) AppleWebKit/537.36 (KHTML, like Gecko) Code/1.47.3 Chrome/78.0.3904.130 Electron/7.3.2 Safari/537.36" etag="4BQ9-Mqd6XjiL0SXpDXm" version="13.1.3" pages="4">
    <diagram id="6hGFLwfOUW9BJ-s0fimq" name="Page-1">
        <mxGraphModel dx="373" dy="274" grid="0" gridSize="10" guides="1" tooltips="1" connect="1" arrows="1" fold="1" page="1" pageScale="1" pageWidth="827" pageHeight="1169" background="#808080" math="0" shadow="0">
            <root>
                <mxCell id="0"/>
                <mxCell id="1" parent="0"/>
                <mxCell id="10" value="20" style="endArrow=none;html=1;" edge="1" parent="1">
                    <mxGeometry width="50" height="50" relative="1" as="geometry">
                        <mxPoint x="184" y="673" as="sourcePoint"/>
                        <mxPoint x="206" y="673" as="targetPoint"/>
                    </mxGeometry>
                </mxCell>
                <mxCell id="42" value="29" style="align=center;strokeColor=#A50040;html=1;fillColor=none;strokeWidth=2;fontColor=#ffffff;" vertex="1" parent="1">
                    <mxGeometry x="168" y="1088" width="22" height="22" as="geometry"/>
                </mxCell>
                <mxCell id="43" value="39" style="align=center;strokeColor=#A50040;html=1;fillColor=none;strokeWidth=2;fontColor=#ffffff;" vertex="1" parent="1">
                    <mxGeometry x="209" y="1088" width="22" height="22" as="geometry"/>
                </mxCell>
                <mxCell id="44" value="71" style="align=center;strokeColor=#A50040;html=1;fillColor=#d80073;strokeWidth=2;fontColor=#ffffff;" vertex="1" parent="1">
                    <mxGeometry x="250" y="1088" width="22" height="22" as="geometry"/>
                </mxCell>
                <mxCell id="45" value="87" style="align=center;html=1;strokeWidth=2;fillColor=none;strokeColor=#FFFF66;" vertex="1" parent="1">
                    <mxGeometry x="290" y="1088" width="22" height="22" as="geometry"/>
                </mxCell>
                <mxCell id="46" value="62" style="align=center;strokeColor=#FFFF66;html=1;fillColor=none;strokeWidth=2;fontColor=#ffffff;" vertex="1" parent="1">
                    <mxGeometry x="331" y="1088" width="22" height="22" as="geometry"/>
                </mxCell>
                <mxCell id="47" value="43" style="align=center;strokeColor=#FFFF66;html=1;fillColor=none;strokeWidth=2;fontColor=#ffffff;" vertex="1" parent="1">
                    <mxGeometry x="372" y="1088" width="22" height="22" as="geometry"/>
                </mxCell>
                <mxCell id="48" value="" style="edgeStyle=elbowEdgeStyle;elbow=vertical;endArrow=none;html=1;endFill=0;startArrow=none;startFill=0;endSize=3;startSize=3;" edge="1" parent="1">
                    <mxGeometry width="50" height="50" relative="1" as="geometry">
                        <mxPoint x="257" y="1114" as="sourcePoint"/>
                        <mxPoint x="305" y="1114" as="targetPoint"/>
                        <Array as="points">
                            <mxPoint x="281" y="1121"/>
                        </Array>
                    </mxGeometry>
                </mxCell>
                <mxCell id="49" value="&lt;font style=&quot;font-size: 6px&quot;&gt;1.不换&lt;/font&gt;" style="text;html=1;strokeColor=none;fillColor=none;align=center;verticalAlign=middle;whiteSpace=wrap;rounded=0;spacing=0;" vertex="1" parent="1">
                    <mxGeometry x="268" y="1112" width="26" height="4" as="geometry"/>
                </mxCell>
                <mxCell id="50" value="" style="edgeStyle=elbowEdgeStyle;elbow=vertical;endArrow=none;html=1;endFill=0;startArrow=none;startFill=0;endSize=3;startSize=3;" edge="1" parent="1">
                    <mxGeometry width="50" height="50" relative="1" as="geometry">
                        <mxPoint x="257" y="1112.9999999999998" as="sourcePoint"/>
                        <mxPoint x="344" y="1113" as="targetPoint"/>
                        <Array as="points">
                            <mxPoint x="301" y="1133"/>
                        </Array>
                    </mxGeometry>
                </mxCell>
                <mxCell id="51" value="&lt;font style=&quot;font-size: 6px&quot;&gt;2.交换&lt;/font&gt;" style="text;html=1;strokeColor=none;fillColor=none;align=center;verticalAlign=middle;whiteSpace=wrap;rounded=0;spacing=0;" vertex="1" parent="1">
                    <mxGeometry x="288" y="1125" width="26" height="4" as="geometry"/>
                </mxCell>
                <mxCell id="53" value="62" style="endArrow=none;html=1;" edge="1" parent="1">
                    <mxGeometry width="50" height="50" relative="1" as="geometry">
                        <mxPoint x="250" y="1136" as="sourcePoint"/>
                        <mxPoint x="272" y="1136" as="targetPoint"/>
                    </mxGeometry>
                </mxCell>
                <mxCell id="54" value="71" style="endArrow=none;html=1;" edge="1" parent="1">
                    <mxGeometry width="50" height="50" relative="1" as="geometry">
                        <mxPoint x="331" y="1137" as="sourcePoint"/>
                        <mxPoint x="353" y="1137" as="targetPoint"/>
                    </mxGeometry>
                </mxCell>
                <mxCell id="55" value="" style="endArrow=none;html=1;startArrow=none;startFill=0;endFill=0;startSize=3;endSize=3;edgeStyle=orthogonalEdgeStyle;" edge="1" parent="1">
                    <mxGeometry width="50" height="50" relative="1" as="geometry">
                        <mxPoint x="262" y="1145" as="sourcePoint"/>
                        <mxPoint x="383" y="1114" as="targetPoint"/>
                        <Array as="points">
                            <mxPoint x="262" y="1152"/>
                            <mxPoint x="383" y="1152"/>
                            <mxPoint x="383" y="1114"/>
                        </Array>
                    </mxGeometry>
                </mxCell>
                <mxCell id="56" value="&lt;font style=&quot;font-size: 6px&quot;&gt;3.交换&lt;/font&gt;" style="text;html=1;strokeColor=none;fillColor=none;align=center;verticalAlign=middle;whiteSpace=wrap;rounded=0;spacing=0;" vertex="1" parent="1">
                    <mxGeometry x="307" y="1142" width="26" height="4" as="geometry"/>
                </mxCell>
                <mxCell id="57" value="43" style="endArrow=none;html=1;" edge="1" parent="1">
                    <mxGeometry width="50" height="50" relative="1" as="geometry">
                        <mxPoint x="251" y="1157" as="sourcePoint"/>
                        <mxPoint x="273" y="1157" as="targetPoint"/>
                    </mxGeometry>
                </mxCell>
                <mxCell id="58" value="62" style="endArrow=none;html=1;" edge="1" parent="1">
                    <mxGeometry width="50" height="50" relative="1" as="geometry">
                        <mxPoint x="372" y="1156" as="sourcePoint"/>
                        <mxPoint x="394" y="1156" as="targetPoint"/>
                    </mxGeometry>
                </mxCell>
                <mxCell id="59" value="" style="endArrow=none;html=1;" edge="1" parent="1">
                    <mxGeometry width="50" height="50" relative="1" as="geometry">
                        <mxPoint x="171" y="1184" as="sourcePoint"/>
                        <mxPoint x="383" y="1184" as="targetPoint"/>
                    </mxGeometry>
                </mxCell>
                <mxCell id="60" value="29 39 43 87 71 62" style="edgeLabel;html=1;align=center;verticalAlign=middle;resizable=0;points=[];" vertex="1" connectable="0" parent="59">
                    <mxGeometry x="0.0616" y="-1" relative="1" as="geometry">
                        <mxPoint as="offset"/>
                    </mxGeometry>
                </mxCell>
                <mxCell id="61" value="29" style="align=center;strokeColor=#A50040;html=1;fillColor=none;strokeWidth=2;fontColor=#ffffff;" vertex="1" parent="1">
                    <mxGeometry x="168" y="1227" width="22" height="22" as="geometry"/>
                </mxCell>
                <mxCell id="62" value="39" style="align=center;strokeColor=#A50040;html=1;fillColor=none;strokeWidth=2;fontColor=#ffffff;" vertex="1" parent="1">
                    <mxGeometry x="209" y="1227" width="22" height="22" as="geometry"/>
                </mxCell>
                <mxCell id="63" value="43" style="align=center;strokeColor=#A50040;html=1;fillColor=none;strokeWidth=2;fontColor=#ffffff;" vertex="1" parent="1">
                    <mxGeometry x="250" y="1227" width="22" height="22" as="geometry"/>
                </mxCell>
                <mxCell id="64" value="87" style="align=center;html=1;strokeWidth=2;fillColor=#d80073;strokeColor=#A50040;fontColor=#ffffff;" vertex="1" parent="1">
                    <mxGeometry x="290" y="1227" width="22" height="22" as="geometry"/>
                </mxCell>
                <mxCell id="65" value="71" style="align=center;strokeColor=#FFFF66;html=1;fillColor=none;strokeWidth=2;fontColor=#ffffff;" vertex="1" parent="1">
                    <mxGeometry x="331" y="1227" width="22" height="22" as="geometry"/>
                </mxCell>
                <mxCell id="66" value="62" style="align=center;strokeColor=#FFFF66;html=1;fillColor=none;strokeWidth=2;fontColor=#ffffff;" vertex="1" parent="1">
                    <mxGeometry x="372" y="1227" width="22" height="22" as="geometry"/>
                </mxCell>
                <mxCell id="67" value="&lt;font style=&quot;font-size: 6px&quot;&gt;1.交换&lt;/font&gt;" style="text;html=1;strokeColor=none;fillColor=none;align=center;verticalAlign=middle;whiteSpace=wrap;rounded=0;spacing=0;" vertex="1" parent="1">
                    <mxGeometry x="307" y="1249" width="26" height="4" as="geometry"/>
                </mxCell>
                <mxCell id="68" value="87" style="endArrow=none;html=1;" edge="1" parent="1">
                    <mxGeometry width="50" height="50" relative="1" as="geometry">
                        <mxPoint x="333" y="1264" as="sourcePoint"/>
                        <mxPoint x="355" y="1264" as="targetPoint"/>
                    </mxGeometry>
                </mxCell>
                <mxCell id="69" value="71" style="endArrow=none;html=1;" edge="1" parent="1">
                    <mxGeometry width="50" height="50" relative="1" as="geometry">
                        <mxPoint x="289" y="1264" as="sourcePoint"/>
                        <mxPoint x="311" y="1264" as="targetPoint"/>
                    </mxGeometry>
                </mxCell>
                <mxCell id="70" value="" style="endArrow=none;html=1;startArrow=none;startFill=0;endFill=0;startSize=3;endSize=3;edgeStyle=orthogonalEdgeStyle;" edge="1" parent="1">
                    <mxGeometry width="50" height="50" relative="1" as="geometry">
                        <mxPoint x="299" y="1274" as="sourcePoint"/>
                        <mxPoint x="386" y="1256" as="targetPoint"/>
                        <Array as="points">
                            <mxPoint x="299" y="1281"/>
                            <mxPoint x="386" y="1281"/>
                        </Array>
                    </mxGeometry>
                </mxCell>
                <mxCell id="71" value="&lt;font style=&quot;font-size: 6px&quot;&gt;2.交换&lt;/font&gt;" style="text;html=1;strokeColor=none;fillColor=none;align=center;verticalAlign=middle;whiteSpace=wrap;rounded=0;spacing=0;" vertex="1" parent="1">
                    <mxGeometry x="326" y="1272" width="26" height="4" as="geometry"/>
                </mxCell>
                <mxCell id="72" value="71" style="endArrow=none;html=1;" edge="1" parent="1">
                    <mxGeometry width="50" height="50" relative="1" as="geometry">
                        <mxPoint x="374" y="1285" as="sourcePoint"/>
                        <mxPoint x="396" y="1285" as="targetPoint"/>
                    </mxGeometry>
                </mxCell>
                <mxCell id="73" value="62" style="endArrow=none;html=1;" edge="1" parent="1">
                    <mxGeometry width="50" height="50" relative="1" as="geometry">
                        <mxPoint x="289" y="1286" as="sourcePoint"/>
                        <mxPoint x="311" y="1286" as="targetPoint"/>
                    </mxGeometry>
                </mxCell>
                <mxCell id="74" value="" style="endArrow=none;html=1;" edge="1" parent="1">
                    <mxGeometry width="50" height="50" relative="1" as="geometry">
                        <mxPoint x="175" y="1302" as="sourcePoint"/>
                        <mxPoint x="387" y="1302" as="targetPoint"/>
                    </mxGeometry>
                </mxCell>
                <mxCell id="75" value="29 39 43 62 87 71" style="edgeLabel;html=1;align=center;verticalAlign=middle;resizable=0;points=[];" vertex="1" connectable="0" parent="74">
                    <mxGeometry x="0.0616" y="-1" relative="1" as="geometry">
                        <mxPoint as="offset"/>
                    </mxGeometry>
                </mxCell>
                <mxCell id="76" value="" style="edgeStyle=elbowEdgeStyle;elbow=vertical;endArrow=none;html=1;endFill=0;startArrow=none;startFill=0;endSize=3;startSize=3;" edge="1" parent="1">
                    <mxGeometry width="50" height="50" relative="1" as="geometry">
                        <mxPoint x="297" y="1251" as="sourcePoint"/>
                        <mxPoint x="345" y="1251" as="targetPoint"/>
                        <Array as="points">
                            <mxPoint x="321" y="1258"/>
                        </Array>
                    </mxGeometry>
                </mxCell>
                <mxCell id="77" value="29" style="align=center;strokeColor=#A50040;html=1;fillColor=none;strokeWidth=2;fontColor=#ffffff;" vertex="1" parent="1">
                    <mxGeometry x="171" y="1348" width="22" height="22" as="geometry"/>
                </mxCell>
                <mxCell id="78" value="39" style="align=center;strokeColor=#A50040;html=1;fillColor=none;strokeWidth=2;fontColor=#ffffff;" vertex="1" parent="1">
                    <mxGeometry x="212" y="1348" width="22" height="22" as="geometry"/>
                </mxCell>
                <mxCell id="79" value="43" style="align=center;strokeColor=#A50040;html=1;fillColor=none;strokeWidth=2;fontColor=#ffffff;" vertex="1" parent="1">
                    <mxGeometry x="253" y="1348" width="22" height="22" as="geometry"/>
                </mxCell>
                <mxCell id="80" value="62" style="align=center;html=1;strokeWidth=2;fillColor=none;strokeColor=#A50040;fontColor=#ffffff;" vertex="1" parent="1">
                    <mxGeometry x="293" y="1348" width="22" height="22" as="geometry"/>
                </mxCell>
                <mxCell id="81" value="87" style="align=center;strokeColor=#A50040;html=1;fillColor=#d80073;strokeWidth=2;fontColor=#ffffff;" vertex="1" parent="1">
                    <mxGeometry x="334" y="1348" width="22" height="22" as="geometry"/>
                </mxCell>
                <mxCell id="82" value="71" style="align=center;strokeColor=#FFFF66;html=1;fillColor=none;strokeWidth=2;fontColor=#ffffff;" vertex="1" parent="1">
                    <mxGeometry x="375" y="1348" width="22" height="22" as="geometry"/>
                </mxCell>
                <mxCell id="83" value="&lt;font style=&quot;font-size: 6px&quot;&gt;1.交换&lt;/font&gt;" style="text;html=1;strokeColor=none;fillColor=none;align=center;verticalAlign=middle;whiteSpace=wrap;rounded=0;spacing=0;" vertex="1" parent="1">
                    <mxGeometry x="352" y="1370" width="26" height="4" as="geometry"/>
                </mxCell>
                <mxCell id="84" value="87" style="endArrow=none;html=1;" edge="1" parent="1">
                    <mxGeometry width="50" height="50" relative="1" as="geometry">
                        <mxPoint x="378" y="1385" as="sourcePoint"/>
                        <mxPoint x="400" y="1385" as="targetPoint"/>
                    </mxGeometry>
                </mxCell>
                <mxCell id="85" value="71" style="endArrow=none;html=1;" edge="1" parent="1">
                    <mxGeometry width="50" height="50" relative="1" as="geometry">
                        <mxPoint x="334" y="1385" as="sourcePoint"/>
                        <mxPoint x="356" y="1385" as="targetPoint"/>
                    </mxGeometry>
                </mxCell>
                <mxCell id="86" value="" style="endArrow=none;html=1;" edge="1" parent="1">
                    <mxGeometry width="50" height="50" relative="1" as="geometry">
                        <mxPoint x="178" y="1400" as="sourcePoint"/>
                        <mxPoint x="390" y="1400" as="targetPoint"/>
                    </mxGeometry>
                </mxCell>
                <mxCell id="87" value="29 39 43 62 71 87" style="edgeLabel;html=1;align=center;verticalAlign=middle;resizable=0;points=[];" vertex="1" connectable="0" parent="86">
                    <mxGeometry x="0.0616" y="-1" relative="1" as="geometry">
                        <mxPoint as="offset"/>
                    </mxGeometry>
                </mxCell>
                <mxCell id="88" value="" style="edgeStyle=elbowEdgeStyle;elbow=vertical;endArrow=none;html=1;endFill=0;startArrow=none;startFill=0;endSize=3;startSize=3;" edge="1" parent="1">
                    <mxGeometry width="50" height="50" relative="1" as="geometry">
                        <mxPoint x="342" y="1372" as="sourcePoint"/>
                        <mxPoint x="390" y="1372" as="targetPoint"/>
                        <Array as="points">
                            <mxPoint x="366" y="1379"/>
                        </Array>
                    </mxGeometry>
                </mxCell>
                <mxCell id="89" value="29" style="align=center;strokeColor=#A50040;html=1;fillColor=none;strokeWidth=2;fontColor=#ffffff;" vertex="1" parent="1">
                    <mxGeometry x="171" y="1443" width="22" height="22" as="geometry"/>
                </mxCell>
                <mxCell id="90" value="39" style="align=center;strokeColor=#A50040;html=1;fillColor=none;strokeWidth=2;fontColor=#ffffff;" vertex="1" parent="1">
                    <mxGeometry x="212" y="1443" width="22" height="22" as="geometry"/>
                </mxCell>
                <mxCell id="91" value="43" style="align=center;strokeColor=#A50040;html=1;fillColor=none;strokeWidth=2;fontColor=#ffffff;" vertex="1" parent="1">
                    <mxGeometry x="253" y="1443" width="22" height="22" as="geometry"/>
                </mxCell>
                <mxCell id="92" value="62" style="align=center;html=1;strokeWidth=2;fillColor=none;strokeColor=#A50040;fontColor=#ffffff;" vertex="1" parent="1">
                    <mxGeometry x="293" y="1443" width="22" height="22" as="geometry"/>
                </mxCell>
                <mxCell id="93" value="71" style="align=center;strokeColor=#A50040;html=1;fillColor=none;strokeWidth=2;fontColor=#ffffff;" vertex="1" parent="1">
                    <mxGeometry x="334" y="1443" width="22" height="22" as="geometry"/>
                </mxCell>
                <mxCell id="94" value="87" style="align=center;strokeColor=#FFFF66;html=1;fillColor=none;strokeWidth=2;fontColor=#ffffff;" vertex="1" parent="1">
                    <mxGeometry x="375" y="1443" width="22" height="22" as="geometry"/>
                </mxCell>
                <mxCell id="95" value="" style="endArrow=none;html=1;" edge="1" parent="1">
                    <mxGeometry width="50" height="50" relative="1" as="geometry">
                        <mxPoint x="177" y="1480" as="sourcePoint"/>
                        <mxPoint x="389" y="1480" as="targetPoint"/>
                    </mxGeometry>
                </mxCell>
                <mxCell id="96" value="29 39 43 62 71 87" style="edgeLabel;html=1;align=center;verticalAlign=middle;resizable=0;points=[];" vertex="1" connectable="0" parent="95">
                    <mxGeometry x="0.0616" y="-1" relative="1" as="geometry">
                        <mxPoint as="offset"/>
                    </mxGeometry>
                </mxCell>
                <mxCell id="97" value="第 1 个位置" style="align=center;strokeColor=#3700CC;html=1;fillColor=#6a00ff;strokeWidth=2;fontColor=#ffffff;" vertex="1" parent="1">
                    <mxGeometry x="484" y="813" width="72" height="22" as="geometry"/>
                </mxCell>
                <mxCell id="98" value="第 2 个位置" style="align=center;strokeColor=#3700CC;html=1;fillColor=#6a00ff;strokeWidth=2;fontColor=#ffffff;" vertex="1" parent="1">
                    <mxGeometry x="481" y="877" width="72" height="22" as="geometry"/>
                </mxCell>
                <mxCell id="99" value="第 3 个位置" style="align=center;strokeColor=#3700CC;html=1;fillColor=#6a00ff;strokeWidth=2;fontColor=#ffffff;" vertex="1" parent="1">
                    <mxGeometry x="168" y="1058" width="72" height="22" as="geometry"/>
                </mxCell>
                <mxCell id="100" value="第 4 个位置" style="align=center;strokeColor=#3700CC;html=1;fillColor=#6a00ff;strokeWidth=2;fontColor=#ffffff;" vertex="1" parent="1">
                    <mxGeometry x="168" y="1198" width="72" height="22" as="geometry"/>
                </mxCell>
                <mxCell id="101" value="第 5 个位置" style="align=center;strokeColor=#3700CC;html=1;fillColor=#6a00ff;strokeWidth=2;fontColor=#ffffff;" vertex="1" parent="1">
                    <mxGeometry x="168" y="1320" width="72" height="22" as="geometry"/>
                </mxCell>
                <mxCell id="102" value="第 6 个位置" style="align=center;strokeColor=#3700CC;html=1;fillColor=#6a00ff;strokeWidth=2;fontColor=#ffffff;" vertex="1" parent="1">
                    <mxGeometry x="171" y="1412" width="72" height="22" as="geometry"/>
                </mxCell>
                <mxCell id="103" value="39" style="align=center;strokeColor=#FFFF66;html=1;fillColor=none;strokeWidth=2;fontColor=#ffffff;" vertex="1" parent="1">
                    <mxGeometry x="143" y="565" width="22" height="22" as="geometry"/>
                </mxCell>
                <mxCell id="104" value="87" style="align=center;strokeColor=#A50040;html=1;fillColor=#d80073;strokeWidth=2;fontColor=#ffffff;" vertex="1" parent="1">
                    <mxGeometry x="184" y="565" width="22" height="22" as="geometry"/>
                </mxCell>
                <mxCell id="105" value="20" style="align=center;strokeColor=#FFFF66;html=1;fillColor=none;strokeWidth=2;" vertex="1" parent="1">
                    <mxGeometry x="225" y="565" width="22" height="22" as="geometry"/>
                </mxCell>
                <mxCell id="106" value="71" style="align=center;html=1;strokeWidth=2;fillColor=none;strokeColor=#FFFF66;" vertex="1" parent="1">
                    <mxGeometry x="265" y="565" width="22" height="22" as="geometry"/>
                </mxCell>
                <mxCell id="107" value="" style="edgeStyle=elbowEdgeStyle;elbow=vertical;endArrow=none;html=1;endFill=0;startArrow=none;startFill=0;endSize=3;startSize=3;" edge="1" parent="1">
                    <mxGeometry width="50" height="50" relative="1" as="geometry">
                        <mxPoint x="150" y="591.9999999999999" as="sourcePoint"/>
                        <mxPoint x="198" y="591.9999999999999" as="targetPoint"/>
                        <Array as="points">
                            <mxPoint x="174" y="599"/>
                        </Array>
                    </mxGeometry>
                </mxCell>
                <mxCell id="108" value="43" style="align=center;strokeColor=#FFFF66;html=1;fillColor=none;strokeWidth=2;fontColor=#ffffff;" vertex="1" parent="1">
                    <mxGeometry x="306" y="565" width="22" height="22" as="geometry"/>
                </mxCell>
                <mxCell id="112" value="&lt;font style=&quot;font-size: 6px&quot;&gt;1.不换&lt;/font&gt;" style="text;html=1;strokeColor=none;fillColor=none;align=center;verticalAlign=middle;whiteSpace=wrap;rounded=0;spacing=0;" vertex="1" parent="1">
                    <mxGeometry x="161" y="590" width="26" height="4" as="geometry"/>
                </mxCell>
                <mxCell id="120" value="39" style="align=center;strokeColor=#A50040;html=1;fillColor=none;strokeWidth=2;fontColor=#ffffff;" vertex="1" parent="1">
                    <mxGeometry x="143" y="565" width="22" height="22" as="geometry"/>
                </mxCell>
                <mxCell id="122" value="39" style="align=center;strokeColor=#FFFF66;html=1;fillColor=none;strokeWidth=2;fontColor=#ffffff;" vertex="1" parent="1">
                    <mxGeometry x="143" y="636" width="22" height="22" as="geometry"/>
                </mxCell>
                <mxCell id="123" value="87" style="align=center;strokeColor=#A50040;html=1;fillColor=none;strokeWidth=2;fontColor=#ffffff;" vertex="1" parent="1">
                    <mxGeometry x="184" y="636" width="22" height="22" as="geometry"/>
                </mxCell>
                <mxCell id="124" value="20" style="align=center;strokeColor=#A50040;html=1;fillColor=#d80073;strokeWidth=2;fontColor=#ffffff;" vertex="1" parent="1">
                    <mxGeometry x="225" y="636" width="22" height="22" as="geometry"/>
                </mxCell>
                <mxCell id="125" value="71" style="align=center;html=1;strokeWidth=2;fillColor=none;strokeColor=#FFFF66;" vertex="1" parent="1">
                    <mxGeometry x="265" y="636" width="22" height="22" as="geometry"/>
                </mxCell>
                <mxCell id="126" value="" style="edgeStyle=elbowEdgeStyle;elbow=vertical;endArrow=none;html=1;endFill=0;startArrow=none;startFill=0;endSize=3;startSize=3;" edge="1" parent="1">
                    <mxGeometry width="50" height="50" relative="1" as="geometry">
                        <mxPoint x="192" y="660.9999999999998" as="sourcePoint"/>
                        <mxPoint x="240" y="660.9999999999998" as="targetPoint"/>
                        <Array as="points">
                            <mxPoint x="216" y="668"/>
                        </Array>
                    </mxGeometry>
                </mxCell>
                <mxCell id="127" value="43" style="align=center;strokeColor=#FFFF66;html=1;fillColor=none;strokeWidth=2;fontColor=#ffffff;" vertex="1" parent="1">
                    <mxGeometry x="306" y="636" width="22" height="22" as="geometry"/>
                </mxCell>
                <mxCell id="129" value="&lt;font style=&quot;font-size: 6px&quot;&gt;1.交换&lt;/font&gt;" style="text;html=1;strokeColor=none;fillColor=none;align=center;verticalAlign=middle;whiteSpace=wrap;rounded=0;spacing=0;" vertex="1" parent="1">
                    <mxGeometry x="202" y="658" width="26" height="4" as="geometry"/>
                </mxCell>
                <mxCell id="130" value="39" style="align=center;strokeColor=#A50040;html=1;fillColor=none;strokeWidth=2;fontColor=#ffffff;" vertex="1" parent="1">
                    <mxGeometry x="143" y="636" width="22" height="22" as="geometry"/>
                </mxCell>
                <mxCell id="132" value="87" style="endArrow=none;html=1;" edge="1" parent="1">
                    <mxGeometry width="50" height="50" relative="1" as="geometry">
                        <mxPoint x="225" y="674" as="sourcePoint"/>
                        <mxPoint x="247" y="674" as="targetPoint"/>
                    </mxGeometry>
                </mxCell>
                <mxCell id="133" value="" style="endArrow=none;html=1;startArrow=none;startFill=0;endFill=0;startSize=3;endSize=3;edgeStyle=orthogonalEdgeStyle;" edge="1" parent="1">
                    <mxGeometry width="50" height="50" relative="1" as="geometry">
                        <mxPoint x="197" y="681" as="sourcePoint"/>
                        <mxPoint x="152" y="663" as="targetPoint"/>
                        <Array as="points">
                            <mxPoint x="197" y="686"/>
                            <mxPoint x="152" y="686"/>
                            <mxPoint x="152" y="668"/>
                        </Array>
                    </mxGeometry>
                </mxCell>
                <mxCell id="135" value="&lt;font style=&quot;font-size: 6px&quot;&gt;2.交换&lt;/font&gt;" style="text;html=1;strokeColor=none;fillColor=none;align=center;verticalAlign=middle;whiteSpace=wrap;rounded=0;spacing=0;" vertex="1" parent="1">
                    <mxGeometry x="159" y="677" width="26" height="4" as="geometry"/>
                </mxCell>
                <mxCell id="136" value="20" style="endArrow=none;html=1;" edge="1" parent="1">
                    <mxGeometry width="50" height="50" relative="1" as="geometry">
                        <mxPoint x="139" y="689" as="sourcePoint"/>
                        <mxPoint x="161" y="689" as="targetPoint"/>
                    </mxGeometry>
                </mxCell>
                <mxCell id="137" value="39" style="endArrow=none;html=1;" edge="1" parent="1">
                    <mxGeometry width="50" height="50" relative="1" as="geometry">
                        <mxPoint x="185" y="690" as="sourcePoint"/>
                        <mxPoint x="207" y="690" as="targetPoint"/>
                    </mxGeometry>
                </mxCell>
                <mxCell id="138" value="" style="endArrow=none;html=1;" edge="1" parent="1">
                    <mxGeometry width="50" height="50" relative="1" as="geometry">
                        <mxPoint x="144" y="709" as="sourcePoint"/>
                        <mxPoint x="329" y="709" as="targetPoint"/>
                    </mxGeometry>
                </mxCell>
                <mxCell id="139" value="20 39 87 71 43" style="edgeLabel;html=1;align=center;verticalAlign=middle;resizable=0;points=[];" vertex="1" connectable="0" parent="138">
                    <mxGeometry x="0.0616" y="-1" relative="1" as="geometry">
                        <mxPoint as="offset"/>
                    </mxGeometry>
                </mxCell>
                <mxCell id="140" value="71" style="endArrow=none;html=1;" edge="1" parent="1">
                    <mxGeometry width="50" height="50" relative="1" as="geometry">
                        <mxPoint x="224" y="796" as="sourcePoint"/>
                        <mxPoint x="246" y="796" as="targetPoint"/>
                    </mxGeometry>
                </mxCell>
                <mxCell id="141" value="20" style="align=center;strokeColor=#A50040;html=1;fillColor=none;strokeWidth=2;fontColor=#ffffff;" vertex="1" parent="1">
                    <mxGeometry x="143" y="758" width="22" height="22" as="geometry"/>
                </mxCell>
                <mxCell id="142" value="39" style="align=center;strokeColor=#A50040;html=1;fillColor=none;strokeWidth=2;fontColor=#ffffff;" vertex="1" parent="1">
                    <mxGeometry x="184" y="758" width="22" height="22" as="geometry"/>
                </mxCell>
                <mxCell id="143" value="87" style="align=center;strokeColor=#A50040;html=1;fillColor=none;strokeWidth=2;fontColor=#ffffff;" vertex="1" parent="1">
                    <mxGeometry x="225" y="758" width="22" height="22" as="geometry"/>
                </mxCell>
                <mxCell id="144" value="71" style="align=center;html=1;strokeWidth=2;fillColor=#d80073;strokeColor=#A50040;fontColor=#ffffff;" vertex="1" parent="1">
                    <mxGeometry x="265" y="758" width="22" height="22" as="geometry"/>
                </mxCell>
                <mxCell id="145" value="" style="edgeStyle=elbowEdgeStyle;elbow=vertical;endArrow=none;html=1;endFill=0;startArrow=none;startFill=0;endSize=3;startSize=3;" edge="1" parent="1">
                    <mxGeometry width="50" height="50" relative="1" as="geometry">
                        <mxPoint x="232" y="783.9999999999998" as="sourcePoint"/>
                        <mxPoint x="280" y="783.9999999999998" as="targetPoint"/>
                        <Array as="points">
                            <mxPoint x="256" y="791"/>
                        </Array>
                    </mxGeometry>
                </mxCell>
                <mxCell id="146" value="43" style="align=center;strokeColor=#FFFF66;html=1;fillColor=none;strokeWidth=2;fontColor=#ffffff;" vertex="1" parent="1">
                    <mxGeometry x="306" y="758" width="22" height="22" as="geometry"/>
                </mxCell>
                <mxCell id="148" value="&lt;font style=&quot;font-size: 6px&quot;&gt;1.交换&lt;/font&gt;" style="text;html=1;strokeColor=none;fillColor=none;align=center;verticalAlign=middle;whiteSpace=wrap;rounded=0;spacing=0;" vertex="1" parent="1">
                    <mxGeometry x="241" y="780" width="26" height="4" as="geometry"/>
                </mxCell>
                <mxCell id="150" value="87" style="endArrow=none;html=1;" edge="1" parent="1">
                    <mxGeometry width="50" height="50" relative="1" as="geometry">
                        <mxPoint x="265" y="797" as="sourcePoint"/>
                        <mxPoint x="287" y="797" as="targetPoint"/>
                    </mxGeometry>
                </mxCell>
                <mxCell id="151" value="" style="endArrow=none;html=1;startArrow=none;startFill=0;endFill=0;startSize=3;endSize=3;edgeStyle=orthogonalEdgeStyle;" edge="1" parent="1">
                    <mxGeometry width="50" height="50" relative="1" as="geometry">
                        <mxPoint x="237" y="804" as="sourcePoint"/>
                        <mxPoint x="192" y="786" as="targetPoint"/>
                        <Array as="points">
                            <mxPoint x="237" y="809"/>
                            <mxPoint x="192" y="809"/>
                            <mxPoint x="192" y="791"/>
                        </Array>
                    </mxGeometry>
                </mxCell>
                <mxCell id="152" value="&lt;font style=&quot;font-size: 6px&quot;&gt;2.不换&lt;/font&gt;" style="text;html=1;strokeColor=none;fillColor=none;align=center;verticalAlign=middle;whiteSpace=wrap;rounded=0;spacing=0;" vertex="1" parent="1">
                    <mxGeometry x="201" y="797" width="26" height="4" as="geometry"/>
                </mxCell>
                <mxCell id="155" value="" style="endArrow=none;html=1;" edge="1" parent="1">
                    <mxGeometry width="50" height="50" relative="1" as="geometry">
                        <mxPoint x="144" y="831" as="sourcePoint"/>
                        <mxPoint x="329" y="831" as="targetPoint"/>
                    </mxGeometry>
                </mxCell>
                <mxCell id="156" value="20 39 71 87 43" style="edgeLabel;html=1;align=center;verticalAlign=middle;resizable=0;points=[];" vertex="1" connectable="0" parent="155">
                    <mxGeometry x="0.0616" y="-1" relative="1" as="geometry">
                        <mxPoint as="offset"/>
                    </mxGeometry>
                </mxCell>
                <mxCell id="171" value="43" style="endArrow=none;html=1;" edge="1" parent="1">
                    <mxGeometry width="50" height="50" relative="1" as="geometry">
                        <mxPoint x="265.5" y="895" as="sourcePoint"/>
                        <mxPoint x="287.5" y="895" as="targetPoint"/>
                    </mxGeometry>
                </mxCell>
                <mxCell id="172" value="20" style="align=center;strokeColor=#A50040;html=1;fillColor=none;strokeWidth=2;fontColor=#ffffff;" vertex="1" parent="1">
                    <mxGeometry x="145" y="857" width="22" height="22" as="geometry"/>
                </mxCell>
                <mxCell id="173" value="39" style="align=center;strokeColor=#A50040;html=1;fillColor=none;strokeWidth=2;fontColor=#ffffff;" vertex="1" parent="1">
                    <mxGeometry x="186" y="857" width="22" height="22" as="geometry"/>
                </mxCell>
                <mxCell id="174" value="71" style="align=center;strokeColor=#A50040;html=1;fillColor=none;strokeWidth=2;fontColor=#ffffff;" vertex="1" parent="1">
                    <mxGeometry x="227" y="857" width="22" height="22" as="geometry"/>
                </mxCell>
                <mxCell id="175" value="87" style="align=center;html=1;strokeWidth=2;fillColor=none;strokeColor=#A50040;fontColor=#ffffff;" vertex="1" parent="1">
                    <mxGeometry x="267" y="857" width="22" height="22" as="geometry"/>
                </mxCell>
                <mxCell id="176" value="" style="edgeStyle=elbowEdgeStyle;elbow=vertical;endArrow=none;html=1;endFill=0;startArrow=none;startFill=0;endSize=3;startSize=3;" edge="1" parent="1">
                    <mxGeometry width="50" height="50" relative="1" as="geometry">
                        <mxPoint x="273.5" y="882.9999999999998" as="sourcePoint"/>
                        <mxPoint x="321.5" y="882.9999999999998" as="targetPoint"/>
                        <Array as="points">
                            <mxPoint x="297.5" y="890"/>
                        </Array>
                    </mxGeometry>
                </mxCell>
                <mxCell id="177" value="43" style="align=center;strokeColor=#A50040;html=1;fillColor=#d80073;strokeWidth=2;fontColor=#ffffff;" vertex="1" parent="1">
                    <mxGeometry x="308" y="857" width="22" height="22" as="geometry"/>
                </mxCell>
                <mxCell id="178" value="&lt;font style=&quot;font-size: 6px&quot;&gt;1.交换&lt;/font&gt;" style="text;html=1;strokeColor=none;fillColor=none;align=center;verticalAlign=middle;whiteSpace=wrap;rounded=0;spacing=0;" vertex="1" parent="1">
                    <mxGeometry x="281" y="881" width="26" height="4" as="geometry"/>
                </mxCell>
                <mxCell id="179" value="87" style="endArrow=none;html=1;" edge="1" parent="1">
                    <mxGeometry width="50" height="50" relative="1" as="geometry">
                        <mxPoint x="306.5" y="896" as="sourcePoint"/>
                        <mxPoint x="328.5" y="896" as="targetPoint"/>
                    </mxGeometry>
                </mxCell>
                <mxCell id="180" value="" style="endArrow=none;html=1;startArrow=none;startFill=0;endFill=0;startSize=3;endSize=3;edgeStyle=orthogonalEdgeStyle;" edge="1" parent="1">
                    <mxGeometry width="50" height="50" relative="1" as="geometry">
                        <mxPoint x="281" y="903" as="sourcePoint"/>
                        <mxPoint x="236" y="885" as="targetPoint"/>
                        <Array as="points">
                            <mxPoint x="281" y="908"/>
                            <mxPoint x="236" y="908"/>
                            <mxPoint x="236" y="890"/>
                        </Array>
                    </mxGeometry>
                </mxCell>
                <mxCell id="181" value="&lt;font style=&quot;font-size: 6px&quot;&gt;2.交换&lt;/font&gt;" style="text;html=1;strokeColor=none;fillColor=none;align=center;verticalAlign=middle;whiteSpace=wrap;rounded=0;spacing=0;" vertex="1" parent="1">
                    <mxGeometry x="242.5" y="896" width="26" height="4" as="geometry"/>
                </mxCell>
                <mxCell id="182" value="" style="endArrow=none;html=1;" edge="1" parent="1">
                    <mxGeometry width="50" height="50" relative="1" as="geometry">
                        <mxPoint x="145" y="944" as="sourcePoint"/>
                        <mxPoint x="330" y="944" as="targetPoint"/>
                    </mxGeometry>
                </mxCell>
                <mxCell id="183" value="20 39 43 71 87" style="edgeLabel;html=1;align=center;verticalAlign=middle;resizable=0;points=[];" vertex="1" connectable="0" parent="182">
                    <mxGeometry x="0.0616" y="-1" relative="1" as="geometry">
                        <mxPoint as="offset"/>
                    </mxGeometry>
                </mxCell>
                <mxCell id="185" value="43" style="endArrow=none;html=1;" edge="1" parent="1">
                    <mxGeometry width="50" height="50" relative="1" as="geometry">
                        <mxPoint x="225" y="911" as="sourcePoint"/>
                        <mxPoint x="247" y="911" as="targetPoint"/>
                    </mxGeometry>
                </mxCell>
                <mxCell id="186" value="71" style="endArrow=none;html=1;" edge="1" parent="1">
                    <mxGeometry width="50" height="50" relative="1" as="geometry">
                        <mxPoint x="270" y="912" as="sourcePoint"/>
                        <mxPoint x="292" y="912" as="targetPoint"/>
                        <Array as="points">
                            <mxPoint x="285" y="912"/>
                        </Array>
                    </mxGeometry>
                </mxCell>
                <mxCell id="187" value="" style="endArrow=none;html=1;startArrow=none;startFill=0;endFill=0;startSize=3;endSize=3;edgeStyle=orthogonalEdgeStyle;" edge="1" parent="1">
                    <mxGeometry width="50" height="50" relative="1" as="geometry">
                        <mxPoint x="238" y="918" as="sourcePoint"/>
                        <mxPoint x="193" y="887" as="targetPoint"/>
                        <Array as="points">
                            <mxPoint x="238" y="923"/>
                            <mxPoint x="193" y="923"/>
                            <mxPoint x="193" y="905"/>
                        </Array>
                    </mxGeometry>
                </mxCell>
                <mxCell id="188" value="&lt;font style=&quot;font-size: 6px&quot;&gt;3.不换&lt;/font&gt;" style="text;html=1;strokeColor=none;fillColor=none;align=center;verticalAlign=middle;whiteSpace=wrap;rounded=0;spacing=0;" vertex="1" parent="1">
                    <mxGeometry x="201" y="913" width="26" height="4" as="geometry"/>
                </mxCell>
            </root>
        </mxGraphModel>
    </diagram>
    <diagram name="插入排序" id="hQM28yAe_s2DDIsykVz9">
        <mxGraphModel dx="373" dy="274" grid="0" gridSize="10" guides="1" tooltips="1" connect="1" arrows="1" fold="1" page="1" pageScale="1" pageWidth="827" pageHeight="1169" background="#808080" math="0" shadow="0">
            <root>
                <mxCell id="KpoBmOBSWsxP8ZV3gozT-0"/>
                <mxCell id="KpoBmOBSWsxP8ZV3gozT-1" parent="KpoBmOBSWsxP8ZV3gozT-0"/>
                <mxCell id="KpoBmOBSWsxP8ZV3gozT-63" value="39" style="align=center;strokeColor=#FFFF66;html=1;fillColor=none;strokeWidth=2;fontColor=#ffffff;" vertex="1" parent="KpoBmOBSWsxP8ZV3gozT-1">
                    <mxGeometry x="108.5" y="111" width="22" height="22" as="geometry"/>
                </mxCell>
                <mxCell id="KpoBmOBSWsxP8ZV3gozT-64" value="87" style="align=center;strokeColor=#A50040;html=1;fillColor=#d80073;strokeWidth=2;fontColor=#ffffff;" vertex="1" parent="KpoBmOBSWsxP8ZV3gozT-1">
                    <mxGeometry x="177.5" y="111" width="22" height="22" as="geometry"/>
                </mxCell>
                <mxCell id="KpoBmOBSWsxP8ZV3gozT-65" value="20" style="align=center;strokeColor=#FFFF66;html=1;fillColor=none;strokeWidth=2;" vertex="1" parent="KpoBmOBSWsxP8ZV3gozT-1">
                    <mxGeometry x="244.5" y="113" width="22" height="22" as="geometry"/>
                </mxCell>
                <mxCell id="KpoBmOBSWsxP8ZV3gozT-66" value="71" style="align=center;html=1;strokeWidth=2;fillColor=none;strokeColor=#FFFF66;" vertex="1" parent="KpoBmOBSWsxP8ZV3gozT-1">
                    <mxGeometry x="311" y="111" width="22" height="22" as="geometry"/>
                </mxCell>
                <mxCell id="KpoBmOBSWsxP8ZV3gozT-68" value="43" style="align=center;strokeColor=#FFFF66;html=1;fillColor=none;strokeWidth=2;fontColor=#ffffff;" vertex="1" parent="KpoBmOBSWsxP8ZV3gozT-1">
                    <mxGeometry x="376.5" y="111" width="22" height="22" as="geometry"/>
                </mxCell>
                <mxCell id="KpoBmOBSWsxP8ZV3gozT-70" value="39" style="align=center;strokeColor=#A50040;html=1;fillColor=none;strokeWidth=2;fontColor=#ffffff;" vertex="1" parent="KpoBmOBSWsxP8ZV3gozT-1">
                    <mxGeometry x="108.5" y="111" width="22" height="22" as="geometry"/>
                </mxCell>
                <mxCell id="KpoBmOBSWsxP8ZV3gozT-116" value="temp=87" style="align=center;strokeColor=#A50040;html=1;fillColor=#d80073;strokeWidth=2;fontColor=#ffffff;" vertex="1" parent="KpoBmOBSWsxP8ZV3gozT-1">
                    <mxGeometry x="93" y="63" width="53" height="18" as="geometry"/>
                </mxCell>
                <mxCell id="KpoBmOBSWsxP8ZV3gozT-119" value="" style="line;strokeWidth=2;direction=south;html=1;fillColor=none;" vertex="1" parent="KpoBmOBSWsxP8ZV3gozT-1">
                    <mxGeometry x="114.5" y="85" width="10" height="22" as="geometry"/>
                </mxCell>
                <mxCell id="N766pruYgwuKqg6ZKUmG-12" value="temp=87" style="align=center;strokeColor=#A50040;html=1;fillColor=#d80073;strokeWidth=2;fontColor=#ffffff;" vertex="1" parent="KpoBmOBSWsxP8ZV3gozT-1">
                    <mxGeometry x="161.5" y="63" width="53" height="18" as="geometry"/>
                </mxCell>
                <mxCell id="N766pruYgwuKqg6ZKUmG-13" value="" style="line;strokeWidth=2;direction=south;html=1;fillColor=none;" vertex="1" parent="KpoBmOBSWsxP8ZV3gozT-1">
                    <mxGeometry x="183" y="85" width="10" height="22" as="geometry"/>
                </mxCell>
                <mxCell id="N766pruYgwuKqg6ZKUmG-21" value="temp=87" style="align=center;strokeColor=#A50040;html=1;fillColor=#d80073;strokeWidth=2;fontColor=#ffffff;" vertex="1" parent="KpoBmOBSWsxP8ZV3gozT-1">
                    <mxGeometry x="161.5" y="63" width="53" height="18" as="geometry"/>
                </mxCell>
                <mxCell id="N766pruYgwuKqg6ZKUmG-22" value="39" style="align=center;strokeColor=#FFFF66;html=1;fillColor=none;strokeWidth=2;fontColor=#ffffff;" vertex="1" parent="KpoBmOBSWsxP8ZV3gozT-1">
                    <mxGeometry x="108.5" y="227" width="22" height="22" as="geometry"/>
                </mxCell>
                <mxCell id="N766pruYgwuKqg6ZKUmG-23" value="87" style="align=center;strokeColor=#A50040;html=1;fillColor=none;strokeWidth=2;fontColor=#ffffff;" vertex="1" parent="KpoBmOBSWsxP8ZV3gozT-1">
                    <mxGeometry x="177.5" y="227" width="22" height="22" as="geometry"/>
                </mxCell>
                <mxCell id="N766pruYgwuKqg6ZKUmG-24" value="20" style="align=center;strokeColor=#A50040;html=1;fillColor=#d80073;strokeWidth=2;fontColor=#ffffff;" vertex="1" parent="KpoBmOBSWsxP8ZV3gozT-1">
                    <mxGeometry x="244.5" y="229" width="22" height="22" as="geometry"/>
                </mxCell>
                <mxCell id="N766pruYgwuKqg6ZKUmG-25" value="71" style="align=center;html=1;strokeWidth=2;fillColor=none;strokeColor=#FFFF66;" vertex="1" parent="KpoBmOBSWsxP8ZV3gozT-1">
                    <mxGeometry x="311" y="227" width="22" height="22" as="geometry"/>
                </mxCell>
                <mxCell id="N766pruYgwuKqg6ZKUmG-26" value="43" style="align=center;strokeColor=#FFFF66;html=1;fillColor=none;strokeWidth=2;fontColor=#ffffff;" vertex="1" parent="KpoBmOBSWsxP8ZV3gozT-1">
                    <mxGeometry x="376.5" y="227" width="22" height="22" as="geometry"/>
                </mxCell>
                <mxCell id="N766pruYgwuKqg6ZKUmG-27" value="39" style="align=center;strokeColor=#A50040;html=1;fillColor=none;strokeWidth=2;fontColor=#ffffff;" vertex="1" parent="KpoBmOBSWsxP8ZV3gozT-1">
                    <mxGeometry x="108.5" y="227" width="22" height="22" as="geometry"/>
                </mxCell>
                <mxCell id="N766pruYgwuKqg6ZKUmG-28" value="temp=20" style="align=center;strokeColor=#A50040;html=1;fillColor=#d80073;strokeWidth=2;fontColor=#ffffff;" vertex="1" parent="KpoBmOBSWsxP8ZV3gozT-1">
                    <mxGeometry x="93" y="179" width="53" height="18" as="geometry"/>
                </mxCell>
                <mxCell id="N766pruYgwuKqg6ZKUmG-29" value="" style="line;strokeWidth=2;direction=south;html=1;fillColor=none;" vertex="1" parent="KpoBmOBSWsxP8ZV3gozT-1">
                    <mxGeometry x="114.5" y="201" width="10" height="22" as="geometry"/>
                </mxCell>
                <mxCell id="N766pruYgwuKqg6ZKUmG-30" value="temp=87" style="align=center;strokeColor=#A50040;html=1;fillColor=#d80073;strokeWidth=2;fontColor=#ffffff;" vertex="1" parent="KpoBmOBSWsxP8ZV3gozT-1">
                    <mxGeometry x="161.5" y="179" width="53" height="18" as="geometry"/>
                </mxCell>
                <mxCell id="N766pruYgwuKqg6ZKUmG-31" value="" style="line;strokeWidth=2;direction=south;html=1;fillColor=none;" vertex="1" parent="KpoBmOBSWsxP8ZV3gozT-1">
                    <mxGeometry x="183" y="201" width="10" height="22" as="geometry"/>
                </mxCell>
                <mxCell id="N766pruYgwuKqg6ZKUmG-32" value="temp=87" style="align=center;strokeColor=#A50040;html=1;fillColor=#d80073;strokeWidth=2;fontColor=#ffffff;" vertex="1" parent="KpoBmOBSWsxP8ZV3gozT-1">
                    <mxGeometry x="229" y="179" width="53" height="18" as="geometry"/>
                </mxCell>
                <mxCell id="N766pruYgwuKqg6ZKUmG-33" value="" style="line;strokeWidth=2;direction=south;html=1;fillColor=none;" vertex="1" parent="KpoBmOBSWsxP8ZV3gozT-1">
                    <mxGeometry x="250.5" y="201" width="10" height="22" as="geometry"/>
                </mxCell>
                <mxCell id="N766pruYgwuKqg6ZKUmG-38" value="temp=20" style="align=center;strokeColor=#A50040;html=1;fillColor=#d80073;strokeWidth=2;fontColor=#ffffff;" vertex="1" parent="KpoBmOBSWsxP8ZV3gozT-1">
                    <mxGeometry x="229" y="179" width="53" height="18" as="geometry"/>
                </mxCell>
                <mxCell id="N766pruYgwuKqg6ZKUmG-39" value="temp=20" style="align=center;strokeColor=#A50040;html=1;fillColor=#d80073;strokeWidth=2;fontColor=#ffffff;" vertex="1" parent="KpoBmOBSWsxP8ZV3gozT-1">
                    <mxGeometry x="161.5" y="179" width="53" height="18" as="geometry"/>
                </mxCell>
                <mxCell id="8A2QjFwRboAF_MpdAKua-0" value="87" style="endArrow=none;html=1;" edge="1" parent="KpoBmOBSWsxP8ZV3gozT-1">
                    <mxGeometry width="50" height="50" relative="1" as="geometry">
                        <mxPoint x="244.5" y="272" as="sourcePoint"/>
                        <mxPoint x="266.5" y="272" as="targetPoint"/>
                    </mxGeometry>
                </mxCell>
                <mxCell id="pVomhIRrJFiehOng1oy9-1" value="" style="edgeStyle=elbowEdgeStyle;elbow=horizontal;endArrow=classic;html=1;" edge="1" parent="KpoBmOBSWsxP8ZV3gozT-1">
                    <mxGeometry width="50" height="50" relative="1" as="geometry">
                        <mxPoint x="188" y="256" as="sourcePoint"/>
                        <mxPoint x="237" y="273" as="targetPoint"/>
                        <Array as="points">
                            <mxPoint x="188" y="279"/>
                        </Array>
                    </mxGeometry>
                </mxCell>
                <mxCell id="pVomhIRrJFiehOng1oy9-2" value="&lt;font style=&quot;font-size: 8px&quot;&gt;1.移动&lt;/font&gt;" style="text;html=1;strokeColor=none;fillColor=none;align=center;verticalAlign=middle;whiteSpace=wrap;rounded=0;" vertex="1" parent="KpoBmOBSWsxP8ZV3gozT-1">
                    <mxGeometry x="189" y="259" width="40" height="12" as="geometry"/>
                </mxCell>
                <mxCell id="pVomhIRrJFiehOng1oy9-3" value="&lt;font style=&quot;font-size: 8px&quot;&gt;1&lt;/font&gt;" style="text;html=1;strokeColor=none;fillColor=none;align=center;verticalAlign=middle;whiteSpace=wrap;rounded=0;" vertex="1" parent="KpoBmOBSWsxP8ZV3gozT-1">
                    <mxGeometry x="189" y="206" width="16" height="12" as="geometry"/>
                </mxCell>
                <mxCell id="pVomhIRrJFiehOng1oy9-4" value="&lt;font style=&quot;font-size: 8px&quot;&gt;2.对比&lt;/font&gt;" style="text;html=1;strokeColor=none;fillColor=none;align=center;verticalAlign=middle;whiteSpace=wrap;rounded=0;" vertex="1" parent="KpoBmOBSWsxP8ZV3gozT-1">
                    <mxGeometry x="120" y="206" width="31" height="12" as="geometry"/>
                </mxCell>
                <mxCell id="pVomhIRrJFiehOng1oy9-5" value="" style="edgeStyle=elbowEdgeStyle;elbow=horizontal;endArrow=classic;html=1;" edge="1" parent="KpoBmOBSWsxP8ZV3gozT-1">
                    <mxGeometry width="50" height="50" relative="1" as="geometry">
                        <mxPoint x="118" y="255" as="sourcePoint"/>
                        <mxPoint x="167" y="283" as="targetPoint"/>
                        <Array as="points">
                            <mxPoint x="118" y="283"/>
                        </Array>
                    </mxGeometry>
                </mxCell>
                <mxCell id="pVomhIRrJFiehOng1oy9-6" value="39" style="endArrow=none;html=1;" edge="1" parent="KpoBmOBSWsxP8ZV3gozT-1">
                    <mxGeometry width="50" height="50" relative="1" as="geometry">
                        <mxPoint x="177" y="282" as="sourcePoint"/>
                        <mxPoint x="199" y="282" as="targetPoint"/>
                    </mxGeometry>
                </mxCell>
                <mxCell id="pVomhIRrJFiehOng1oy9-7" value="&lt;font style=&quot;font-size: 8px&quot;&gt;2.移动&lt;/font&gt;" style="text;html=1;strokeColor=none;fillColor=none;align=center;verticalAlign=middle;whiteSpace=wrap;rounded=0;" vertex="1" parent="KpoBmOBSWsxP8ZV3gozT-1">
                    <mxGeometry x="120" y="267" width="40" height="12" as="geometry"/>
                </mxCell>
                <mxCell id="pVomhIRrJFiehOng1oy9-8" value="" style="edgeStyle=elbowEdgeStyle;elbow=horizontal;endArrow=classic;html=1;" edge="1" parent="KpoBmOBSWsxP8ZV3gozT-1">
                    <mxGeometry width="50" height="50" relative="1" as="geometry">
                        <mxPoint x="87" y="188" as="sourcePoint"/>
                        <mxPoint x="104" y="241" as="targetPoint"/>
                        <Array as="points">
                            <mxPoint x="76" y="214"/>
                        </Array>
                    </mxGeometry>
                </mxCell>
                <mxCell id="pVomhIRrJFiehOng1oy9-9" value="&lt;font style=&quot;font-size: 8px&quot;&gt;3.填入&lt;/font&gt;" style="text;html=1;strokeColor=none;fillColor=none;align=center;verticalAlign=middle;whiteSpace=wrap;rounded=0;" vertex="1" parent="KpoBmOBSWsxP8ZV3gozT-1">
                    <mxGeometry x="77.5" y="206" width="31" height="12" as="geometry"/>
                </mxCell>
                <mxCell id="pVomhIRrJFiehOng1oy9-10" value="20" style="align=center;strokeColor=#A50040;html=1;fillColor=none;strokeWidth=2;fontColor=#ffffff;" vertex="1" parent="KpoBmOBSWsxP8ZV3gozT-1">
                    <mxGeometry x="97.5" y="398" width="22" height="22" as="geometry"/>
                </mxCell>
                <mxCell id="pVomhIRrJFiehOng1oy9-11" value="39" style="align=center;strokeColor=#A50040;html=1;fillColor=none;strokeWidth=2;fontColor=#ffffff;" vertex="1" parent="KpoBmOBSWsxP8ZV3gozT-1">
                    <mxGeometry x="166.5" y="398" width="22" height="22" as="geometry"/>
                </mxCell>
                <mxCell id="pVomhIRrJFiehOng1oy9-12" value="87" style="align=center;strokeColor=#A50040;html=1;fillColor=none;strokeWidth=2;fontColor=#ffffff;" vertex="1" parent="KpoBmOBSWsxP8ZV3gozT-1">
                    <mxGeometry x="233.5" y="400" width="22" height="22" as="geometry"/>
                </mxCell>
                <mxCell id="pVomhIRrJFiehOng1oy9-13" value="71" style="align=center;html=1;strokeWidth=2;fillColor=#d80073;strokeColor=#A50040;fontColor=#ffffff;" vertex="1" parent="KpoBmOBSWsxP8ZV3gozT-1">
                    <mxGeometry x="300" y="398" width="22" height="22" as="geometry"/>
                </mxCell>
                <mxCell id="pVomhIRrJFiehOng1oy9-14" value="43" style="align=center;strokeColor=#FFFF66;html=1;fillColor=none;strokeWidth=2;fontColor=#ffffff;" vertex="1" parent="KpoBmOBSWsxP8ZV3gozT-1">
                    <mxGeometry x="365.5" y="398" width="22" height="22" as="geometry"/>
                </mxCell>
                <mxCell id="pVomhIRrJFiehOng1oy9-18" value="temp=87" style="align=center;strokeColor=#A50040;html=1;fillColor=#d80073;strokeWidth=2;fontColor=#ffffff;" vertex="1" parent="KpoBmOBSWsxP8ZV3gozT-1">
                    <mxGeometry x="150.5" y="350" width="53" height="18" as="geometry"/>
                </mxCell>
                <mxCell id="pVomhIRrJFiehOng1oy9-19" value="" style="line;strokeWidth=2;direction=south;html=1;fillColor=none;" vertex="1" parent="KpoBmOBSWsxP8ZV3gozT-1">
                    <mxGeometry x="172" y="372" width="10" height="22" as="geometry"/>
                </mxCell>
                <mxCell id="pVomhIRrJFiehOng1oy9-20" value="temp=87" style="align=center;strokeColor=#A50040;html=1;fillColor=#d80073;strokeWidth=2;fontColor=#ffffff;" vertex="1" parent="KpoBmOBSWsxP8ZV3gozT-1">
                    <mxGeometry x="218" y="350" width="53" height="18" as="geometry"/>
                </mxCell>
                <mxCell id="pVomhIRrJFiehOng1oy9-21" value="" style="line;strokeWidth=2;direction=south;html=1;fillColor=none;" vertex="1" parent="KpoBmOBSWsxP8ZV3gozT-1">
                    <mxGeometry x="239.5" y="372" width="10" height="22" as="geometry"/>
                </mxCell>
                <mxCell id="pVomhIRrJFiehOng1oy9-22" value="temp=71" style="align=center;strokeColor=#A50040;html=1;fillColor=#d80073;strokeWidth=2;fontColor=#ffffff;" vertex="1" parent="KpoBmOBSWsxP8ZV3gozT-1">
                    <mxGeometry x="284.5" y="350" width="53" height="18" as="geometry"/>
                </mxCell>
                <mxCell id="pVomhIRrJFiehOng1oy9-23" value="" style="line;strokeWidth=2;direction=south;html=1;fillColor=none;" vertex="1" parent="KpoBmOBSWsxP8ZV3gozT-1">
                    <mxGeometry x="306" y="372" width="10" height="22" as="geometry"/>
                </mxCell>
                <mxCell id="pVomhIRrJFiehOng1oy9-24" value="temp=87" style="align=center;strokeColor=#A50040;html=1;fillColor=#d80073;strokeWidth=2;fontColor=#ffffff;" vertex="1" parent="KpoBmOBSWsxP8ZV3gozT-1">
                    <mxGeometry x="350" y="350" width="53" height="18" as="geometry"/>
                </mxCell>
                <mxCell id="pVomhIRrJFiehOng1oy9-25" value="" style="line;strokeWidth=2;direction=south;html=1;fillColor=none;" vertex="1" parent="KpoBmOBSWsxP8ZV3gozT-1">
                    <mxGeometry x="371.5" y="372" width="10" height="22" as="geometry"/>
                </mxCell>
                <mxCell id="pVomhIRrJFiehOng1oy9-26" value="temp=71" style="align=center;strokeColor=#A50040;html=1;fillColor=#d80073;strokeWidth=2;fontColor=#ffffff;" vertex="1" parent="KpoBmOBSWsxP8ZV3gozT-1">
                    <mxGeometry x="218" y="350" width="53" height="18" as="geometry"/>
                </mxCell>
                <mxCell id="pVomhIRrJFiehOng1oy9-27" value="temp=71" style="align=center;strokeColor=#A50040;html=1;fillColor=#d80073;strokeWidth=2;fontColor=#ffffff;" vertex="1" parent="KpoBmOBSWsxP8ZV3gozT-1">
                    <mxGeometry x="150.5" y="350" width="53" height="18" as="geometry"/>
                </mxCell>
                <mxCell id="pVomhIRrJFiehOng1oy9-29" value="87" style="endArrow=none;html=1;" edge="1" parent="KpoBmOBSWsxP8ZV3gozT-1">
                    <mxGeometry width="50" height="50" relative="1" as="geometry">
                        <mxPoint x="300" y="442" as="sourcePoint"/>
                        <mxPoint x="322" y="442" as="targetPoint"/>
                    </mxGeometry>
                </mxCell>
                <mxCell id="pVomhIRrJFiehOng1oy9-30" value="" style="edgeStyle=elbowEdgeStyle;elbow=horizontal;endArrow=classic;html=1;" edge="1" parent="KpoBmOBSWsxP8ZV3gozT-1">
                    <mxGeometry width="50" height="50" relative="1" as="geometry">
                        <mxPoint x="243.5" y="426" as="sourcePoint"/>
                        <mxPoint x="292.5" y="443" as="targetPoint"/>
                        <Array as="points">
                            <mxPoint x="243.5" y="449"/>
                        </Array>
                    </mxGeometry>
                </mxCell>
                <mxCell id="pVomhIRrJFiehOng1oy9-31" value="&lt;font style=&quot;font-size: 8px&quot;&gt;1.移动&lt;/font&gt;" style="text;html=1;strokeColor=none;fillColor=none;align=center;verticalAlign=middle;whiteSpace=wrap;rounded=0;" vertex="1" parent="KpoBmOBSWsxP8ZV3gozT-1">
                    <mxGeometry x="244.5" y="429" width="40" height="12" as="geometry"/>
                </mxCell>
                <mxCell id="pVomhIRrJFiehOng1oy9-32" value="" style="edgeStyle=elbowEdgeStyle;elbow=horizontal;endArrow=classic;html=1;" edge="1" parent="KpoBmOBSWsxP8ZV3gozT-1">
                    <mxGeometry width="50" height="50" relative="1" as="geometry">
                        <mxPoint x="175.5" y="424" as="sourcePoint"/>
                        <mxPoint x="176" y="452" as="targetPoint"/>
                        <Array as="points">
                            <mxPoint x="175.5" y="452"/>
                        </Array>
                    </mxGeometry>
                </mxCell>
                <mxCell id="pVomhIRrJFiehOng1oy9-34" value="&lt;font style=&quot;font-size: 8px&quot;&gt;2.不移动&lt;/font&gt;" style="text;html=1;strokeColor=none;fillColor=none;align=center;verticalAlign=middle;whiteSpace=wrap;rounded=0;" vertex="1" parent="KpoBmOBSWsxP8ZV3gozT-1">
                    <mxGeometry x="157.5" y="452" width="40" height="12" as="geometry"/>
                </mxCell>
                <mxCell id="pVomhIRrJFiehOng1oy9-35" value="" style="edgeStyle=elbowEdgeStyle;elbow=horizontal;endArrow=classic;html=1;" edge="1" parent="KpoBmOBSWsxP8ZV3gozT-1">
                    <mxGeometry width="50" height="50" relative="1" as="geometry">
                        <mxPoint x="216.5" y="362" as="sourcePoint"/>
                        <mxPoint x="229" y="410" as="targetPoint"/>
                        <Array as="points">
                            <mxPoint x="206" y="387"/>
                        </Array>
                    </mxGeometry>
                </mxCell>
                <mxCell id="pVomhIRrJFiehOng1oy9-36" value="&lt;font style=&quot;font-size: 8px&quot;&gt;3.填入&lt;/font&gt;" style="text;html=1;strokeColor=none;fillColor=none;align=center;verticalAlign=middle;whiteSpace=wrap;rounded=0;" vertex="1" parent="KpoBmOBSWsxP8ZV3gozT-1">
                    <mxGeometry x="208.5" y="382" width="31" height="12" as="geometry"/>
                </mxCell>
                <mxCell id="pVomhIRrJFiehOng1oy9-37" value="20" style="align=center;strokeColor=#A50040;html=1;fillColor=none;strokeWidth=2;fontColor=#ffffff;" vertex="1" parent="KpoBmOBSWsxP8ZV3gozT-1">
                    <mxGeometry x="113" y="577" width="22" height="22" as="geometry"/>
                </mxCell>
                <mxCell id="pVomhIRrJFiehOng1oy9-38" value="39" style="align=center;strokeColor=#A50040;html=1;fillColor=none;strokeWidth=2;fontColor=#ffffff;" vertex="1" parent="KpoBmOBSWsxP8ZV3gozT-1">
                    <mxGeometry x="182" y="577" width="22" height="22" as="geometry"/>
                </mxCell>
                <mxCell id="pVomhIRrJFiehOng1oy9-39" value="71" style="align=center;strokeColor=#A50040;html=1;fillColor=none;strokeWidth=2;fontColor=#ffffff;" vertex="1" parent="KpoBmOBSWsxP8ZV3gozT-1">
                    <mxGeometry x="249" y="579" width="22" height="22" as="geometry"/>
                </mxCell>
                <mxCell id="pVomhIRrJFiehOng1oy9-40" value="87" style="align=center;html=1;strokeWidth=2;fillColor=none;strokeColor=#A50040;fontColor=#ffffff;" vertex="1" parent="KpoBmOBSWsxP8ZV3gozT-1">
                    <mxGeometry x="315.5" y="577" width="22" height="22" as="geometry"/>
                </mxCell>
                <mxCell id="pVomhIRrJFiehOng1oy9-41" value="43" style="align=center;strokeColor=#A50040;html=1;fillColor=#d80073;strokeWidth=2;fontColor=#ffffff;" vertex="1" parent="KpoBmOBSWsxP8ZV3gozT-1">
                    <mxGeometry x="381" y="577" width="22" height="22" as="geometry"/>
                </mxCell>
                <mxCell id="pVomhIRrJFiehOng1oy9-45" value="temp=87" style="align=center;strokeColor=#A50040;html=1;fillColor=#d80073;strokeWidth=2;fontColor=#ffffff;" vertex="1" parent="KpoBmOBSWsxP8ZV3gozT-1">
                    <mxGeometry x="166" y="529" width="53" height="18" as="geometry"/>
                </mxCell>
                <mxCell id="pVomhIRrJFiehOng1oy9-46" value="" style="line;strokeWidth=2;direction=south;html=1;fillColor=none;" vertex="1" parent="KpoBmOBSWsxP8ZV3gozT-1">
                    <mxGeometry x="187.5" y="551" width="10" height="22" as="geometry"/>
                </mxCell>
                <mxCell id="pVomhIRrJFiehOng1oy9-47" value="temp=87" style="align=center;strokeColor=#A50040;html=1;fillColor=#d80073;strokeWidth=2;fontColor=#ffffff;" vertex="1" parent="KpoBmOBSWsxP8ZV3gozT-1">
                    <mxGeometry x="233.5" y="529" width="53" height="18" as="geometry"/>
                </mxCell>
                <mxCell id="pVomhIRrJFiehOng1oy9-48" value="" style="line;strokeWidth=2;direction=south;html=1;fillColor=none;" vertex="1" parent="KpoBmOBSWsxP8ZV3gozT-1">
                    <mxGeometry x="255" y="551" width="10" height="22" as="geometry"/>
                </mxCell>
                <mxCell id="pVomhIRrJFiehOng1oy9-49" value="temp=43" style="align=center;strokeColor=#A50040;html=1;fillColor=#d80073;strokeWidth=2;fontColor=#ffffff;" vertex="1" parent="KpoBmOBSWsxP8ZV3gozT-1">
                    <mxGeometry x="300" y="529" width="53" height="18" as="geometry"/>
                </mxCell>
                <mxCell id="pVomhIRrJFiehOng1oy9-50" value="" style="line;strokeWidth=2;direction=south;html=1;fillColor=none;" vertex="1" parent="KpoBmOBSWsxP8ZV3gozT-1">
                    <mxGeometry x="321.5" y="551" width="10" height="22" as="geometry"/>
                </mxCell>
                <mxCell id="pVomhIRrJFiehOng1oy9-51" value="temp=43" style="align=center;strokeColor=#A50040;html=1;fillColor=#d80073;strokeWidth=2;fontColor=#ffffff;" vertex="1" parent="KpoBmOBSWsxP8ZV3gozT-1">
                    <mxGeometry x="365.5" y="529" width="53" height="18" as="geometry"/>
                </mxCell>
                <mxCell id="pVomhIRrJFiehOng1oy9-52" value="" style="line;strokeWidth=2;direction=south;html=1;fillColor=none;" vertex="1" parent="KpoBmOBSWsxP8ZV3gozT-1">
                    <mxGeometry x="387" y="551" width="10" height="22" as="geometry"/>
                </mxCell>
                <mxCell id="pVomhIRrJFiehOng1oy9-53" value="temp=43" style="align=center;strokeColor=#A50040;html=1;fillColor=#d80073;strokeWidth=2;fontColor=#ffffff;" vertex="1" parent="KpoBmOBSWsxP8ZV3gozT-1">
                    <mxGeometry x="233.5" y="529" width="53" height="18" as="geometry"/>
                </mxCell>
                <mxCell id="pVomhIRrJFiehOng1oy9-54" value="temp=43" style="align=center;strokeColor=#A50040;html=1;fillColor=#d80073;strokeWidth=2;fontColor=#ffffff;" vertex="1" parent="KpoBmOBSWsxP8ZV3gozT-1">
                    <mxGeometry x="166" y="529" width="53" height="18" as="geometry"/>
                </mxCell>
                <mxCell id="pVomhIRrJFiehOng1oy9-55" value="87" style="endArrow=none;html=1;" edge="1" parent="KpoBmOBSWsxP8ZV3gozT-1">
                    <mxGeometry width="50" height="50" relative="1" as="geometry">
                        <mxPoint x="383.5" y="621" as="sourcePoint"/>
                        <mxPoint x="405.5" y="621" as="targetPoint"/>
                    </mxGeometry>
                </mxCell>
                <mxCell id="pVomhIRrJFiehOng1oy9-56" value="" style="edgeStyle=elbowEdgeStyle;elbow=horizontal;endArrow=classic;html=1;" edge="1" parent="KpoBmOBSWsxP8ZV3gozT-1">
                    <mxGeometry width="50" height="50" relative="1" as="geometry">
                        <mxPoint x="327" y="605" as="sourcePoint"/>
                        <mxPoint x="376" y="622" as="targetPoint"/>
                        <Array as="points">
                            <mxPoint x="327" y="628"/>
                        </Array>
                    </mxGeometry>
                </mxCell>
                <mxCell id="pVomhIRrJFiehOng1oy9-57" value="&lt;font style=&quot;font-size: 8px&quot;&gt;1.移动&lt;/font&gt;" style="text;html=1;strokeColor=none;fillColor=none;align=center;verticalAlign=middle;whiteSpace=wrap;rounded=0;" vertex="1" parent="KpoBmOBSWsxP8ZV3gozT-1">
                    <mxGeometry x="328" y="608" width="40" height="12" as="geometry"/>
                </mxCell>
                <mxCell id="pVomhIRrJFiehOng1oy9-58" value="71" style="endArrow=none;html=1;" edge="1" parent="KpoBmOBSWsxP8ZV3gozT-1">
                    <mxGeometry width="50" height="50" relative="1" as="geometry">
                        <mxPoint x="317.9999999999999" y="636.0000000000001" as="sourcePoint"/>
                        <mxPoint x="340" y="636.0000000000001" as="targetPoint"/>
                    </mxGeometry>
                </mxCell>
                <mxCell id="pVomhIRrJFiehOng1oy9-59" value="" style="edgeStyle=elbowEdgeStyle;elbow=horizontal;endArrow=classic;html=1;" edge="1" parent="KpoBmOBSWsxP8ZV3gozT-1">
                    <mxGeometry width="50" height="50" relative="1" as="geometry">
                        <mxPoint x="261.5" y="607" as="sourcePoint"/>
                        <mxPoint x="310.4999999999999" y="636.9999999999999" as="targetPoint"/>
                        <Array as="points">
                            <mxPoint x="261.5" y="643"/>
                        </Array>
                    </mxGeometry>
                </mxCell>
                <mxCell id="pVomhIRrJFiehOng1oy9-60" value="&lt;font style=&quot;font-size: 8px&quot;&gt;2.移动&lt;/font&gt;" style="text;html=1;strokeColor=none;fillColor=none;align=center;verticalAlign=middle;whiteSpace=wrap;rounded=0;" vertex="1" parent="KpoBmOBSWsxP8ZV3gozT-1">
                    <mxGeometry x="262.5" y="623" width="40" height="12" as="geometry"/>
                </mxCell>
                <mxCell id="pVomhIRrJFiehOng1oy9-62" value="" style="edgeStyle=elbowEdgeStyle;elbow=horizontal;endArrow=classic;html=1;" edge="1" parent="KpoBmOBSWsxP8ZV3gozT-1">
                    <mxGeometry width="50" height="50" relative="1" as="geometry">
                        <mxPoint x="192.5" y="603" as="sourcePoint"/>
                        <mxPoint x="193" y="631" as="targetPoint"/>
                        <Array as="points">
                            <mxPoint x="192.5" y="631"/>
                        </Array>
                    </mxGeometry>
                </mxCell>
                <mxCell id="pVomhIRrJFiehOng1oy9-63" value="&lt;font style=&quot;font-size: 8px&quot;&gt;3.不移动&lt;/font&gt;" style="text;html=1;strokeColor=none;fillColor=none;align=center;verticalAlign=middle;whiteSpace=wrap;rounded=0;" vertex="1" parent="KpoBmOBSWsxP8ZV3gozT-1">
                    <mxGeometry x="174.5" y="631" width="40" height="12" as="geometry"/>
                </mxCell>
                <mxCell id="pVomhIRrJFiehOng1oy9-64" value="" style="edgeStyle=elbowEdgeStyle;elbow=horizontal;endArrow=classic;html=1;" edge="1" parent="KpoBmOBSWsxP8ZV3gozT-1">
                    <mxGeometry width="50" height="50" relative="1" as="geometry">
                        <mxPoint x="232.5" y="542" as="sourcePoint"/>
                        <mxPoint x="245" y="590" as="targetPoint"/>
                        <Array as="points">
                            <mxPoint x="222" y="567"/>
                        </Array>
                    </mxGeometry>
                </mxCell>
                <mxCell id="pVomhIRrJFiehOng1oy9-65" value="&lt;font style=&quot;font-size: 8px&quot;&gt;4.填入&lt;/font&gt;" style="text;html=1;strokeColor=none;fillColor=none;align=center;verticalAlign=middle;whiteSpace=wrap;rounded=0;" vertex="1" parent="KpoBmOBSWsxP8ZV3gozT-1">
                    <mxGeometry x="220.5" y="561" width="31" height="12" as="geometry"/>
                </mxCell>
                <mxCell id="fhPuob0KrwT2FXQ0W3fa-0" value="" style="endArrow=none;html=1;" edge="1" parent="KpoBmOBSWsxP8ZV3gozT-1">
                    <mxGeometry width="50" height="50" relative="1" as="geometry">
                        <mxPoint x="97" y="150" as="sourcePoint"/>
                        <mxPoint x="396" y="150" as="targetPoint"/>
                    </mxGeometry>
                </mxCell>
                <mxCell id="fhPuob0KrwT2FXQ0W3fa-1" value="39 87 20 71 43" style="edgeLabel;html=1;align=center;verticalAlign=middle;resizable=0;points=[];" vertex="1" connectable="0" parent="fhPuob0KrwT2FXQ0W3fa-0">
                    <mxGeometry x="0.0616" y="-1" relative="1" as="geometry">
                        <mxPoint as="offset"/>
                    </mxGeometry>
                </mxCell>
                <mxCell id="fhPuob0KrwT2FXQ0W3fa-2" value="" style="endArrow=none;html=1;" edge="1" parent="KpoBmOBSWsxP8ZV3gozT-1">
                    <mxGeometry width="50" height="50" relative="1" as="geometry">
                        <mxPoint x="93" y="301" as="sourcePoint"/>
                        <mxPoint x="392" y="301" as="targetPoint"/>
                    </mxGeometry>
                </mxCell>
                <mxCell id="fhPuob0KrwT2FXQ0W3fa-3" value="20 39 87 71 43" style="edgeLabel;html=1;align=center;verticalAlign=middle;resizable=0;points=[];" vertex="1" connectable="0" parent="fhPuob0KrwT2FXQ0W3fa-2">
                    <mxGeometry x="0.0616" y="-1" relative="1" as="geometry">
                        <mxPoint as="offset"/>
                    </mxGeometry>
                </mxCell>
                <mxCell id="fhPuob0KrwT2FXQ0W3fa-6" value="" style="endArrow=none;html=1;" edge="1" parent="KpoBmOBSWsxP8ZV3gozT-1">
                    <mxGeometry width="50" height="50" relative="1" as="geometry">
                        <mxPoint x="104" y="482" as="sourcePoint"/>
                        <mxPoint x="402.9999999999999" y="482" as="targetPoint"/>
                    </mxGeometry>
                </mxCell>
                <mxCell id="fhPuob0KrwT2FXQ0W3fa-7" value="20 39 71 87 43" style="edgeLabel;html=1;align=center;verticalAlign=middle;resizable=0;points=[];" vertex="1" connectable="0" parent="fhPuob0KrwT2FXQ0W3fa-6">
                    <mxGeometry x="0.0616" y="-1" relative="1" as="geometry">
                        <mxPoint as="offset"/>
                    </mxGeometry>
                </mxCell>
                <mxCell id="fhPuob0KrwT2FXQ0W3fa-8" value="" style="endArrow=none;html=1;" edge="1" parent="KpoBmOBSWsxP8ZV3gozT-1">
                    <mxGeometry width="50" height="50" relative="1" as="geometry">
                        <mxPoint x="119.5" y="660" as="sourcePoint"/>
                        <mxPoint x="418.5" y="660" as="targetPoint"/>
                    </mxGeometry>
                </mxCell>
                <mxCell id="fhPuob0KrwT2FXQ0W3fa-9" value="20 39 43 71 87" style="edgeLabel;html=1;align=center;verticalAlign=middle;resizable=0;points=[];" vertex="1" connectable="0" parent="fhPuob0KrwT2FXQ0W3fa-8">
                    <mxGeometry x="0.0616" y="-1" relative="1" as="geometry">
                        <mxPoint as="offset"/>
                    </mxGeometry>
                </mxCell>
            </root>
        </mxGraphModel>
    </diagram>
    <diagram name="折半法插入" id="D8S6jLr6DRf9PRmjlUb9">
        <mxGraphModel dx="310" dy="1398" grid="0" gridSize="10" guides="1" tooltips="1" connect="1" arrows="1" fold="1" page="1" pageScale="1" pageWidth="827" pageHeight="1169" background="#808080" math="0" shadow="0">
            <root>
                <mxCell id="8KmrPCsiJHzjiUgNNt0r-0"/>
                <mxCell id="8KmrPCsiJHzjiUgNNt0r-1" parent="8KmrPCsiJHzjiUgNNt0r-0"/>
                <mxCell id="hP4vgsGxe1KlltxnFKcE-1" value="20" style="align=center;strokeColor=#A50040;html=1;fillColor=none;strokeWidth=2;fontColor=#ffffff;" vertex="1" parent="8KmrPCsiJHzjiUgNNt0r-1">
                    <mxGeometry x="271" y="-1115" width="22" height="22" as="geometry"/>
                </mxCell>
                <mxCell id="hP4vgsGxe1KlltxnFKcE-2" value="39" style="align=center;strokeColor=#A50040;html=1;fillColor=none;strokeWidth=2;fontColor=#ffffff;" vertex="1" parent="8KmrPCsiJHzjiUgNNt0r-1">
                    <mxGeometry x="312" y="-1115" width="22" height="22" as="geometry"/>
                </mxCell>
                <mxCell id="hP4vgsGxe1KlltxnFKcE-3" value="71" style="align=center;strokeColor=#A50040;html=1;fillColor=none;strokeWidth=2;fontColor=#ffffff;" vertex="1" parent="8KmrPCsiJHzjiUgNNt0r-1">
                    <mxGeometry x="353" y="-1115" width="22" height="22" as="geometry"/>
                </mxCell>
                <mxCell id="hP4vgsGxe1KlltxnFKcE-4" value="87" style="align=center;html=1;strokeWidth=2;fillColor=none;strokeColor=#A50040;fontColor=#ffffff;" vertex="1" parent="8KmrPCsiJHzjiUgNNt0r-1">
                    <mxGeometry x="393" y="-1115" width="22" height="22" as="geometry"/>
                </mxCell>
                <mxCell id="hP4vgsGxe1KlltxnFKcE-5" value="" style="edgeStyle=elbowEdgeStyle;elbow=vertical;endArrow=none;html=1;endFill=0;startArrow=none;startFill=0;endSize=3;startSize=3;" edge="1" parent="8KmrPCsiJHzjiUgNNt0r-1">
                    <mxGeometry width="50" height="50" relative="1" as="geometry">
                        <mxPoint x="283" y="-1087.0000000000002" as="sourcePoint"/>
                        <mxPoint x="404" y="-1087" as="targetPoint"/>
                        <Array as="points">
                            <mxPoint x="346" y="-1071"/>
                        </Array>
                    </mxGeometry>
                </mxCell>
                <mxCell id="hP4vgsGxe1KlltxnFKcE-6" value="43" style="align=center;strokeColor=#A50040;html=1;fillColor=#d80073;strokeWidth=2;fontColor=#ffffff;" vertex="1" parent="8KmrPCsiJHzjiUgNNt0r-1">
                    <mxGeometry x="434" y="-1115" width="22" height="22" as="geometry"/>
                </mxCell>
                <mxCell id="hP4vgsGxe1KlltxnFKcE-10" value="a[4]" style="text;html=1;strokeColor=none;fillColor=none;align=center;verticalAlign=middle;whiteSpace=wrap;rounded=0;" vertex="1" parent="8KmrPCsiJHzjiUgNNt0r-1">
                    <mxGeometry x="416" y="-1135" width="58" height="20" as="geometry"/>
                </mxCell>
                <mxCell id="hP4vgsGxe1KlltxnFKcE-11" value="排好的序列" style="text;html=1;strokeColor=none;fillColor=none;align=center;verticalAlign=middle;whiteSpace=wrap;rounded=0;" vertex="1" parent="8KmrPCsiJHzjiUgNNt0r-1">
                    <mxGeometry x="300" y="-1072" width="81" height="20" as="geometry"/>
                </mxCell>
                <mxCell id="hP4vgsGxe1KlltxnFKcE-12" value="a[0]" style="text;html=1;strokeColor=none;fillColor=none;align=center;verticalAlign=middle;whiteSpace=wrap;rounded=0;" vertex="1" parent="8KmrPCsiJHzjiUgNNt0r-1">
                    <mxGeometry x="250" y="-1135" width="58" height="20" as="geometry"/>
                </mxCell>
                <mxCell id="hP4vgsGxe1KlltxnFKcE-13" value="" style="endArrow=none;html=1;startArrow=classic;startFill=1;endSize=2;startSize=2;" edge="1" parent="8KmrPCsiJHzjiUgNNt0r-1">
                    <mxGeometry width="50" height="50" relative="1" as="geometry">
                        <mxPoint x="363.76" y="-1119" as="sourcePoint"/>
                        <mxPoint x="364" y="-1134" as="targetPoint"/>
                    </mxGeometry>
                </mxCell>
            </root>
        </mxGraphModel>
    </diagram>
    <diagram name="2 路排序" id="9-n-bTr1XiFRp9la_aBI">
        <mxGraphModel dx="181" dy="133" grid="0" gridSize="10" guides="1" tooltips="1" connect="1" arrows="1" fold="1" page="1" pageScale="1" pageWidth="827" pageHeight="1169" background="#808080" math="0" shadow="0">
            <root>
                <mxCell id="rU7rjYSOn0yy5Q8A3F-N-0"/>
                <mxCell id="rU7rjYSOn0yy5Q8A3F-N-1" parent="rU7rjYSOn0yy5Q8A3F-N-0"/>
                <mxCell id="QkMMztbyLHLMfnuU3-ys-0" value="39" style="align=center;strokeColor=#FFFF66;html=1;fillColor=none;strokeWidth=2;fontColor=#ffffff;" vertex="1" parent="rU7rjYSOn0yy5Q8A3F-N-1">
                    <mxGeometry x="264" y="95" width="22" height="22" as="geometry"/>
                </mxCell>
                <mxCell id="QkMMztbyLHLMfnuU3-ys-1" value="87" style="align=center;strokeColor=#A50040;html=1;fillColor=#d80073;strokeWidth=2;fontColor=#ffffff;" vertex="1" parent="rU7rjYSOn0yy5Q8A3F-N-1">
                    <mxGeometry x="305" y="95" width="22" height="22" as="geometry"/>
                </mxCell>
                <mxCell id="QkMMztbyLHLMfnuU3-ys-2" value="20" style="align=center;strokeColor=#FFFF66;html=1;fillColor=none;strokeWidth=2;" vertex="1" parent="rU7rjYSOn0yy5Q8A3F-N-1">
                    <mxGeometry x="346" y="95" width="22" height="22" as="geometry"/>
                </mxCell>
                <mxCell id="QkMMztbyLHLMfnuU3-ys-3" value="71" style="align=center;html=1;strokeWidth=2;fillColor=none;strokeColor=#FFFF66;" vertex="1" parent="rU7rjYSOn0yy5Q8A3F-N-1">
                    <mxGeometry x="386" y="95" width="22" height="22" as="geometry"/>
                </mxCell>
                <mxCell id="QkMMztbyLHLMfnuU3-ys-4" value="" style="edgeStyle=elbowEdgeStyle;elbow=vertical;endArrow=none;html=1;endFill=0;startArrow=none;startFill=0;endSize=3;startSize=3;" edge="1" parent="rU7rjYSOn0yy5Q8A3F-N-1">
                    <mxGeometry width="50" height="50" relative="1" as="geometry">
                        <mxPoint x="271" y="121.99999999999989" as="sourcePoint"/>
                        <mxPoint x="319" y="121.99999999999989" as="targetPoint"/>
                        <Array as="points">
                            <mxPoint x="295" y="129"/>
                        </Array>
                    </mxGeometry>
                </mxCell>
                <mxCell id="QkMMztbyLHLMfnuU3-ys-5" value="43" style="align=center;strokeColor=#FFFF66;html=1;fillColor=none;strokeWidth=2;fontColor=#ffffff;" vertex="1" parent="rU7rjYSOn0yy5Q8A3F-N-1">
                    <mxGeometry x="427" y="95" width="22" height="22" as="geometry"/>
                </mxCell>
                <mxCell id="QkMMztbyLHLMfnuU3-ys-6" value="&lt;font style=&quot;font-size: 6px&quot;&gt;1.不换&lt;/font&gt;" style="text;html=1;strokeColor=none;fillColor=none;align=center;verticalAlign=middle;whiteSpace=wrap;rounded=0;spacing=0;" vertex="1" parent="rU7rjYSOn0yy5Q8A3F-N-1">
                    <mxGeometry x="282" y="120" width="26" height="4" as="geometry"/>
                </mxCell>
                <mxCell id="QkMMztbyLHLMfnuU3-ys-7" value="39" style="align=center;strokeColor=#A50040;html=1;fillColor=none;strokeWidth=2;fontColor=#ffffff;" vertex="1" parent="rU7rjYSOn0yy5Q8A3F-N-1">
                    <mxGeometry x="264" y="95" width="22" height="22" as="geometry"/>
                </mxCell>
                <mxCell id="QkMMztbyLHLMfnuU3-ys-31" value="" style="group" vertex="1" connectable="0" parent="rU7rjYSOn0yy5Q8A3F-N-1">
                    <mxGeometry x="257" y="180" width="98" height="98" as="geometry"/>
                </mxCell>
                <mxCell id="QkMMztbyLHLMfnuU3-ys-33" value="" style="ellipse;whiteSpace=wrap;html=1;aspect=fixed;strokeColor=#FFFF66;fillColor=none;" vertex="1" parent="QkMMztbyLHLMfnuU3-ys-31">
                    <mxGeometry x="9" y="9" width="80" height="80" as="geometry"/>
                </mxCell>
                <mxCell id="QkMMztbyLHLMfnuU3-ys-9" value="" style="ellipse;whiteSpace=wrap;html=1;aspect=fixed;strokeColor=#FFFF66;fillColor=none;" vertex="1" parent="QkMMztbyLHLMfnuU3-ys-31">
                    <mxGeometry x="28.75" y="28.75" width="40.5" height="40.5" as="geometry"/>
                </mxCell>
                <mxCell id="QkMMztbyLHLMfnuU3-ys-19" value="" style="endArrow=none;html=1;" edge="1" parent="QkMMztbyLHLMfnuU3-ys-31">
                    <mxGeometry width="50" height="50" relative="1" as="geometry">
                        <mxPoint x="49.25307977159861" y="9.772597594346394" as="sourcePoint"/>
                        <mxPoint x="48.75" y="28.75" as="targetPoint"/>
                    </mxGeometry>
                </mxCell>
                <mxCell id="QkMMztbyLHLMfnuU3-ys-23" value="" style="endArrow=none;html=1;exitX=0.981;exitY=0.309;exitDx=0;exitDy=0;exitPerimeter=0;" edge="1" parent="QkMMztbyLHLMfnuU3-ys-31" source="QkMMztbyLHLMfnuU3-ys-33">
                    <mxGeometry width="50" height="50" relative="1" as="geometry">
                        <mxPoint x="92.25" y="32.5" as="sourcePoint"/>
                        <mxPoint x="69.25" y="46.47999999999999" as="targetPoint"/>
                    </mxGeometry>
                </mxCell>
                <mxCell id="QkMMztbyLHLMfnuU3-ys-24" value="" style="endArrow=none;html=1;exitX=0.023;exitY=0.343;exitDx=0;exitDy=0;exitPerimeter=0;" edge="1" parent="QkMMztbyLHLMfnuU3-ys-31" source="QkMMztbyLHLMfnuU3-ys-33">
                    <mxGeometry width="50" height="50" relative="1" as="geometry">
                        <mxPoint x="12.287999999999954" y="36.50400000000006" as="sourcePoint"/>
                        <mxPoint x="28.75" y="45.90000000000002" as="targetPoint"/>
                    </mxGeometry>
                </mxCell>
                <mxCell id="QkMMztbyLHLMfnuU3-ys-25" value="" style="endArrow=none;html=1;exitX=0.133;exitY=0.849;exitDx=0;exitDy=0;exitPerimeter=0;" edge="1" parent="QkMMztbyLHLMfnuU3-ys-31" source="QkMMztbyLHLMfnuU3-ys-33">
                    <mxGeometry width="50" height="50" relative="1" as="geometry">
                        <mxPoint x="18.503999999999984" y="78.30000000000008" as="sourcePoint"/>
                        <mxPoint x="33.46" y="63.500000000000014" as="targetPoint"/>
                    </mxGeometry>
                </mxCell>
                <mxCell id="QkMMztbyLHLMfnuU3-ys-26" value="" style="endArrow=none;html=1;exitX=1;exitY=1;exitDx=0;exitDy=0;" edge="1" parent="QkMMztbyLHLMfnuU3-ys-31">
                    <mxGeometry width="50" height="50" relative="1" as="geometry">
                        <mxPoint x="77.648232278141" y="76.648232278141" as="sourcePoint"/>
                        <mxPoint x="64.5" y="63.50000000000003" as="targetPoint"/>
                    </mxGeometry>
                </mxCell>
                <mxCell id="QkMMztbyLHLMfnuU3-ys-32" value="&lt;font style=&quot;font-size: 8px&quot;&gt;a[0]&lt;/font&gt;" style="text;html=1;strokeColor=none;fillColor=none;align=center;verticalAlign=middle;whiteSpace=wrap;rounded=0;spacing=0;" vertex="1" parent="QkMMztbyLHLMfnuU3-ys-31">
                    <mxGeometry x="69.25" y="9" width="26" height="4" as="geometry"/>
                </mxCell>
                <mxCell id="QkMMztbyLHLMfnuU3-ys-36" value="&lt;font style=&quot;font-size: 8px&quot;&gt;a[2]&lt;/font&gt;" style="text;html=1;strokeColor=none;fillColor=none;align=center;verticalAlign=middle;whiteSpace=wrap;rounded=0;spacing=0;" vertex="1" parent="QkMMztbyLHLMfnuU3-ys-31">
                    <mxGeometry x="33" y="89" width="26" height="4" as="geometry"/>
                </mxCell>
                <mxCell id="QkMMztbyLHLMfnuU3-ys-37" value="&lt;font style=&quot;font-size: 8px&quot;&gt;a[3]&lt;/font&gt;" style="text;html=1;strokeColor=none;fillColor=none;align=center;verticalAlign=middle;whiteSpace=wrap;rounded=0;spacing=0;" vertex="1" parent="QkMMztbyLHLMfnuU3-ys-31">
                    <mxGeometry x="-17" y="60" width="26" height="4" as="geometry"/>
                </mxCell>
                <mxCell id="QkMMztbyLHLMfnuU3-ys-38" value="&lt;font style=&quot;font-size: 8px&quot;&gt;a[4]&lt;/font&gt;" style="text;html=1;strokeColor=none;fillColor=none;align=center;verticalAlign=middle;whiteSpace=wrap;rounded=0;spacing=0;" vertex="1" parent="QkMMztbyLHLMfnuU3-ys-31">
                    <mxGeometry x="2.75" y="9" width="26" height="4" as="geometry"/>
                </mxCell>
                <mxCell id="QkMMztbyLHLMfnuU3-ys-39" value="&lt;font style=&quot;font-size: 8px&quot;&gt;39&lt;/font&gt;" style="text;html=1;strokeColor=none;fillColor=none;align=center;verticalAlign=middle;whiteSpace=wrap;rounded=0;spacing=0;" vertex="1" parent="QkMMztbyLHLMfnuU3-ys-31">
                    <mxGeometry x="54" y="21" width="26" height="4" as="geometry"/>
                </mxCell>
                <mxCell id="QkMMztbyLHLMfnuU3-ys-35" value="&lt;font style=&quot;font-size: 8px&quot;&gt;a[1]&lt;/font&gt;" style="text;html=1;strokeColor=none;fillColor=none;align=center;verticalAlign=middle;whiteSpace=wrap;rounded=0;spacing=0;" vertex="1" parent="rU7rjYSOn0yy5Q8A3F-N-1">
                    <mxGeometry x="342" y="233" width="26" height="4" as="geometry"/>
                </mxCell>
                <mxCell id="QkMMztbyLHLMfnuU3-ys-40" value="" style="group" vertex="1" connectable="0" parent="rU7rjYSOn0yy5Q8A3F-N-1">
                    <mxGeometry x="398" y="185" width="98" height="98" as="geometry"/>
                </mxCell>
                <mxCell id="QkMMztbyLHLMfnuU3-ys-41" value="" style="ellipse;whiteSpace=wrap;html=1;aspect=fixed;strokeColor=#FFFF66;fillColor=none;" vertex="1" parent="QkMMztbyLHLMfnuU3-ys-40">
                    <mxGeometry x="9" y="9" width="80" height="80" as="geometry"/>
                </mxCell>
                <mxCell id="QkMMztbyLHLMfnuU3-ys-42" value="" style="ellipse;whiteSpace=wrap;html=1;aspect=fixed;strokeColor=#FFFF66;fillColor=none;" vertex="1" parent="QkMMztbyLHLMfnuU3-ys-40">
                    <mxGeometry x="28.75" y="28.75" width="40.5" height="40.5" as="geometry"/>
                </mxCell>
                <mxCell id="QkMMztbyLHLMfnuU3-ys-43" value="" style="endArrow=none;html=1;" edge="1" parent="QkMMztbyLHLMfnuU3-ys-40">
                    <mxGeometry width="50" height="50" relative="1" as="geometry">
                        <mxPoint x="49.25307977159861" y="9.772597594346394" as="sourcePoint"/>
                        <mxPoint x="48.75" y="28.75" as="targetPoint"/>
                    </mxGeometry>
                </mxCell>
                <mxCell id="QkMMztbyLHLMfnuU3-ys-44" value="" style="endArrow=none;html=1;exitX=0.981;exitY=0.309;exitDx=0;exitDy=0;exitPerimeter=0;" edge="1" parent="QkMMztbyLHLMfnuU3-ys-40" source="QkMMztbyLHLMfnuU3-ys-41">
                    <mxGeometry width="50" height="50" relative="1" as="geometry">
                        <mxPoint x="92.25" y="32.5" as="sourcePoint"/>
                        <mxPoint x="69.25" y="46.47999999999999" as="targetPoint"/>
                    </mxGeometry>
                </mxCell>
                <mxCell id="QkMMztbyLHLMfnuU3-ys-45" value="" style="endArrow=none;html=1;exitX=0.023;exitY=0.343;exitDx=0;exitDy=0;exitPerimeter=0;" edge="1" parent="QkMMztbyLHLMfnuU3-ys-40" source="QkMMztbyLHLMfnuU3-ys-41">
                    <mxGeometry width="50" height="50" relative="1" as="geometry">
                        <mxPoint x="12.287999999999954" y="36.50400000000006" as="sourcePoint"/>
                        <mxPoint x="28.75" y="45.90000000000002" as="targetPoint"/>
                    </mxGeometry>
                </mxCell>
                <mxCell id="QkMMztbyLHLMfnuU3-ys-46" value="" style="endArrow=none;html=1;exitX=0.133;exitY=0.849;exitDx=0;exitDy=0;exitPerimeter=0;" edge="1" parent="QkMMztbyLHLMfnuU3-ys-40" source="QkMMztbyLHLMfnuU3-ys-41">
                    <mxGeometry width="50" height="50" relative="1" as="geometry">
                        <mxPoint x="18.503999999999984" y="78.30000000000008" as="sourcePoint"/>
                        <mxPoint x="33.46" y="63.500000000000014" as="targetPoint"/>
                    </mxGeometry>
                </mxCell>
                <mxCell id="QkMMztbyLHLMfnuU3-ys-47" value="" style="endArrow=none;html=1;exitX=1;exitY=1;exitDx=0;exitDy=0;" edge="1" parent="QkMMztbyLHLMfnuU3-ys-40">
                    <mxGeometry width="50" height="50" relative="1" as="geometry">
                        <mxPoint x="77.648232278141" y="76.648232278141" as="sourcePoint"/>
                        <mxPoint x="64.5" y="63.50000000000003" as="targetPoint"/>
                    </mxGeometry>
                </mxCell>
                <mxCell id="QkMMztbyLHLMfnuU3-ys-48" value="&lt;font style=&quot;font-size: 8px&quot;&gt;a[0]&lt;/font&gt;" style="text;html=1;strokeColor=none;fillColor=none;align=center;verticalAlign=middle;whiteSpace=wrap;rounded=0;spacing=0;" vertex="1" parent="QkMMztbyLHLMfnuU3-ys-40">
                    <mxGeometry x="69.25" y="9" width="26" height="4" as="geometry"/>
                </mxCell>
                <mxCell id="QkMMztbyLHLMfnuU3-ys-49" value="&lt;font style=&quot;font-size: 8px&quot;&gt;a[2]&lt;/font&gt;" style="text;html=1;strokeColor=none;fillColor=none;align=center;verticalAlign=middle;whiteSpace=wrap;rounded=0;spacing=0;" vertex="1" parent="QkMMztbyLHLMfnuU3-ys-40">
                    <mxGeometry x="39" y="94" width="26" height="4" as="geometry"/>
                </mxCell>
                <mxCell id="QkMMztbyLHLMfnuU3-ys-50" value="&lt;font style=&quot;font-size: 8px&quot;&gt;a[3]&lt;/font&gt;" style="text;html=1;strokeColor=none;fillColor=none;align=center;verticalAlign=middle;whiteSpace=wrap;rounded=0;spacing=0;" vertex="1" parent="QkMMztbyLHLMfnuU3-ys-40">
                    <mxGeometry x="-17" y="60" width="26" height="4" as="geometry"/>
                </mxCell>
                <mxCell id="QkMMztbyLHLMfnuU3-ys-51" value="&lt;font style=&quot;font-size: 8px&quot;&gt;a[4]&lt;/font&gt;" style="text;html=1;strokeColor=none;fillColor=none;align=center;verticalAlign=middle;whiteSpace=wrap;rounded=0;spacing=0;" vertex="1" parent="QkMMztbyLHLMfnuU3-ys-40">
                    <mxGeometry x="2.75" y="9" width="26" height="4" as="geometry"/>
                </mxCell>
                <mxCell id="QkMMztbyLHLMfnuU3-ys-52" value="&lt;font style=&quot;font-size: 8px&quot;&gt;39&lt;/font&gt;" style="text;html=1;strokeColor=none;fillColor=none;align=center;verticalAlign=middle;whiteSpace=wrap;rounded=0;spacing=0;" vertex="1" parent="QkMMztbyLHLMfnuU3-ys-40">
                    <mxGeometry x="54" y="21" width="26" height="4" as="geometry"/>
                </mxCell>
                <mxCell id="QkMMztbyLHLMfnuU3-ys-54" value="&lt;font style=&quot;font-size: 8px&quot;&gt;87&lt;/font&gt;" style="text;html=1;strokeColor=none;fillColor=none;align=center;verticalAlign=middle;whiteSpace=wrap;rounded=0;spacing=0;" vertex="1" parent="QkMMztbyLHLMfnuU3-ys-40">
                    <mxGeometry x="67" y="51" width="26" height="4" as="geometry"/>
                </mxCell>
                <mxCell id="QkMMztbyLHLMfnuU3-ys-53" value="&lt;font style=&quot;font-size: 8px&quot;&gt;a[1]&lt;/font&gt;" style="text;html=1;strokeColor=none;fillColor=none;align=center;verticalAlign=middle;whiteSpace=wrap;rounded=0;spacing=0;" vertex="1" parent="rU7rjYSOn0yy5Q8A3F-N-1">
                    <mxGeometry x="483" y="238" width="26" height="4" as="geometry"/>
                </mxCell>
                <mxCell id="QkMMztbyLHLMfnuU3-ys-55" value="" style="group" vertex="1" connectable="0" parent="rU7rjYSOn0yy5Q8A3F-N-1">
                    <mxGeometry x="251" y="306" width="98" height="98" as="geometry"/>
                </mxCell>
                <mxCell id="QkMMztbyLHLMfnuU3-ys-56" value="" style="ellipse;whiteSpace=wrap;html=1;aspect=fixed;strokeColor=#FFFF66;fillColor=none;" vertex="1" parent="QkMMztbyLHLMfnuU3-ys-55">
                    <mxGeometry x="9" y="9" width="80" height="80" as="geometry"/>
                </mxCell>
                <mxCell id="QkMMztbyLHLMfnuU3-ys-57" value="" style="ellipse;whiteSpace=wrap;html=1;aspect=fixed;strokeColor=#FFFF66;fillColor=none;" vertex="1" parent="QkMMztbyLHLMfnuU3-ys-55">
                    <mxGeometry x="28.75" y="28.75" width="40.5" height="40.5" as="geometry"/>
                </mxCell>
                <mxCell id="QkMMztbyLHLMfnuU3-ys-58" value="" style="endArrow=none;html=1;" edge="1" parent="QkMMztbyLHLMfnuU3-ys-55">
                    <mxGeometry width="50" height="50" relative="1" as="geometry">
                        <mxPoint x="49.25307977159861" y="9.772597594346394" as="sourcePoint"/>
                        <mxPoint x="48.75" y="28.75" as="targetPoint"/>
                    </mxGeometry>
                </mxCell>
                <mxCell id="QkMMztbyLHLMfnuU3-ys-59" value="" style="endArrow=none;html=1;exitX=0.981;exitY=0.309;exitDx=0;exitDy=0;exitPerimeter=0;" edge="1" parent="QkMMztbyLHLMfnuU3-ys-55" source="QkMMztbyLHLMfnuU3-ys-56">
                    <mxGeometry width="50" height="50" relative="1" as="geometry">
                        <mxPoint x="92.25" y="32.5" as="sourcePoint"/>
                        <mxPoint x="69.25" y="46.47999999999999" as="targetPoint"/>
                    </mxGeometry>
                </mxCell>
                <mxCell id="QkMMztbyLHLMfnuU3-ys-60" value="" style="endArrow=none;html=1;exitX=0.023;exitY=0.343;exitDx=0;exitDy=0;exitPerimeter=0;" edge="1" parent="QkMMztbyLHLMfnuU3-ys-55" source="QkMMztbyLHLMfnuU3-ys-56">
                    <mxGeometry width="50" height="50" relative="1" as="geometry">
                        <mxPoint x="12.287999999999954" y="36.50400000000006" as="sourcePoint"/>
                        <mxPoint x="28.75" y="45.90000000000002" as="targetPoint"/>
                    </mxGeometry>
                </mxCell>
                <mxCell id="QkMMztbyLHLMfnuU3-ys-61" value="" style="endArrow=none;html=1;exitX=0.133;exitY=0.849;exitDx=0;exitDy=0;exitPerimeter=0;" edge="1" parent="QkMMztbyLHLMfnuU3-ys-55" source="QkMMztbyLHLMfnuU3-ys-56">
                    <mxGeometry width="50" height="50" relative="1" as="geometry">
                        <mxPoint x="18.503999999999984" y="78.30000000000008" as="sourcePoint"/>
                        <mxPoint x="33.46" y="63.500000000000014" as="targetPoint"/>
                    </mxGeometry>
                </mxCell>
                <mxCell id="QkMMztbyLHLMfnuU3-ys-62" value="" style="endArrow=none;html=1;exitX=1;exitY=1;exitDx=0;exitDy=0;" edge="1" parent="QkMMztbyLHLMfnuU3-ys-55">
                    <mxGeometry width="50" height="50" relative="1" as="geometry">
                        <mxPoint x="77.648232278141" y="76.648232278141" as="sourcePoint"/>
                        <mxPoint x="64.5" y="63.50000000000003" as="targetPoint"/>
                    </mxGeometry>
                </mxCell>
                <mxCell id="QkMMztbyLHLMfnuU3-ys-63" value="&lt;font style=&quot;font-size: 8px&quot;&gt;a[0]&lt;/font&gt;" style="text;html=1;strokeColor=none;fillColor=none;align=center;verticalAlign=middle;whiteSpace=wrap;rounded=0;spacing=0;" vertex="1" parent="QkMMztbyLHLMfnuU3-ys-55">
                    <mxGeometry x="69.25" y="9" width="26" height="4" as="geometry"/>
                </mxCell>
                <mxCell id="QkMMztbyLHLMfnuU3-ys-64" value="&lt;font style=&quot;font-size: 8px&quot;&gt;a[2]&lt;/font&gt;" style="text;html=1;strokeColor=none;fillColor=none;align=center;verticalAlign=middle;whiteSpace=wrap;rounded=0;spacing=0;" vertex="1" parent="QkMMztbyLHLMfnuU3-ys-55">
                    <mxGeometry x="33" y="89" width="26" height="4" as="geometry"/>
                </mxCell>
                <mxCell id="QkMMztbyLHLMfnuU3-ys-65" value="&lt;font style=&quot;font-size: 8px&quot;&gt;a[3]&lt;/font&gt;" style="text;html=1;strokeColor=none;fillColor=none;align=center;verticalAlign=middle;whiteSpace=wrap;rounded=0;spacing=0;" vertex="1" parent="QkMMztbyLHLMfnuU3-ys-55">
                    <mxGeometry x="-17" y="60" width="26" height="4" as="geometry"/>
                </mxCell>
                <mxCell id="QkMMztbyLHLMfnuU3-ys-66" value="&lt;font style=&quot;font-size: 8px&quot;&gt;a[4]&lt;/font&gt;" style="text;html=1;strokeColor=none;fillColor=none;align=center;verticalAlign=middle;whiteSpace=wrap;rounded=0;spacing=0;" vertex="1" parent="QkMMztbyLHLMfnuU3-ys-55">
                    <mxGeometry x="2.75" y="9" width="26" height="4" as="geometry"/>
                </mxCell>
                <mxCell id="QkMMztbyLHLMfnuU3-ys-67" value="&lt;font style=&quot;font-size: 8px&quot;&gt;39&lt;/font&gt;" style="text;html=1;strokeColor=none;fillColor=none;align=center;verticalAlign=middle;whiteSpace=wrap;rounded=0;spacing=0;" vertex="1" parent="QkMMztbyLHLMfnuU3-ys-55">
                    <mxGeometry x="54" y="21" width="26" height="4" as="geometry"/>
                </mxCell>
                <mxCell id="QkMMztbyLHLMfnuU3-ys-68" value="&lt;font style=&quot;font-size: 8px&quot;&gt;87&lt;/font&gt;" style="text;html=1;strokeColor=none;fillColor=none;align=center;verticalAlign=middle;whiteSpace=wrap;rounded=0;spacing=0;" vertex="1" parent="QkMMztbyLHLMfnuU3-ys-55">
                    <mxGeometry x="67" y="51" width="26" height="4" as="geometry"/>
                </mxCell>
                <mxCell id="QkMMztbyLHLMfnuU3-ys-70" value="&lt;font style=&quot;font-size: 8px&quot;&gt;20&lt;/font&gt;" style="text;html=1;strokeColor=none;fillColor=none;align=center;verticalAlign=middle;whiteSpace=wrap;rounded=0;spacing=0;" vertex="1" parent="QkMMztbyLHLMfnuU3-ys-55">
                    <mxGeometry x="18" y="21" width="26" height="4" as="geometry"/>
                </mxCell>
                <mxCell id="QkMMztbyLHLMfnuU3-ys-69" value="&lt;font style=&quot;font-size: 8px&quot;&gt;a[1]&lt;/font&gt;" style="text;html=1;strokeColor=none;fillColor=none;align=center;verticalAlign=middle;whiteSpace=wrap;rounded=0;spacing=0;" vertex="1" parent="rU7rjYSOn0yy5Q8A3F-N-1">
                    <mxGeometry x="336" y="359" width="26" height="4" as="geometry"/>
                </mxCell>
                <mxCell id="QkMMztbyLHLMfnuU3-ys-71" value="" style="group" vertex="1" connectable="0" parent="rU7rjYSOn0yy5Q8A3F-N-1">
                    <mxGeometry x="397" y="316" width="98" height="98" as="geometry"/>
                </mxCell>
                <mxCell id="QkMMztbyLHLMfnuU3-ys-72" value="" style="ellipse;whiteSpace=wrap;html=1;aspect=fixed;strokeColor=#FFFF66;fillColor=none;" vertex="1" parent="QkMMztbyLHLMfnuU3-ys-71">
                    <mxGeometry x="9" y="9" width="80" height="80" as="geometry"/>
                </mxCell>
                <mxCell id="QkMMztbyLHLMfnuU3-ys-73" value="" style="ellipse;whiteSpace=wrap;html=1;aspect=fixed;strokeColor=#FFFF66;fillColor=none;" vertex="1" parent="QkMMztbyLHLMfnuU3-ys-71">
                    <mxGeometry x="28.75" y="28.75" width="40.5" height="40.5" as="geometry"/>
                </mxCell>
                <mxCell id="QkMMztbyLHLMfnuU3-ys-74" value="" style="endArrow=none;html=1;" edge="1" parent="QkMMztbyLHLMfnuU3-ys-71">
                    <mxGeometry width="50" height="50" relative="1" as="geometry">
                        <mxPoint x="49.25307977159861" y="9.772597594346394" as="sourcePoint"/>
                        <mxPoint x="48.75" y="28.75" as="targetPoint"/>
                    </mxGeometry>
                </mxCell>
                <mxCell id="QkMMztbyLHLMfnuU3-ys-75" value="" style="endArrow=none;html=1;exitX=0.981;exitY=0.309;exitDx=0;exitDy=0;exitPerimeter=0;" edge="1" parent="QkMMztbyLHLMfnuU3-ys-71" source="QkMMztbyLHLMfnuU3-ys-72">
                    <mxGeometry width="50" height="50" relative="1" as="geometry">
                        <mxPoint x="92.25" y="32.5" as="sourcePoint"/>
                        <mxPoint x="69.25" y="46.47999999999999" as="targetPoint"/>
                    </mxGeometry>
                </mxCell>
                <mxCell id="QkMMztbyLHLMfnuU3-ys-76" value="" style="endArrow=none;html=1;exitX=0.023;exitY=0.343;exitDx=0;exitDy=0;exitPerimeter=0;" edge="1" parent="QkMMztbyLHLMfnuU3-ys-71" source="QkMMztbyLHLMfnuU3-ys-72">
                    <mxGeometry width="50" height="50" relative="1" as="geometry">
                        <mxPoint x="12.287999999999954" y="36.50400000000006" as="sourcePoint"/>
                        <mxPoint x="28.75" y="45.90000000000002" as="targetPoint"/>
                    </mxGeometry>
                </mxCell>
                <mxCell id="QkMMztbyLHLMfnuU3-ys-77" value="" style="endArrow=none;html=1;exitX=0.133;exitY=0.849;exitDx=0;exitDy=0;exitPerimeter=0;" edge="1" parent="QkMMztbyLHLMfnuU3-ys-71" source="QkMMztbyLHLMfnuU3-ys-72">
                    <mxGeometry width="50" height="50" relative="1" as="geometry">
                        <mxPoint x="18.503999999999984" y="78.30000000000008" as="sourcePoint"/>
                        <mxPoint x="33.46" y="63.500000000000014" as="targetPoint"/>
                    </mxGeometry>
                </mxCell>
                <mxCell id="QkMMztbyLHLMfnuU3-ys-78" value="" style="endArrow=none;html=1;exitX=1;exitY=1;exitDx=0;exitDy=0;" edge="1" parent="QkMMztbyLHLMfnuU3-ys-71">
                    <mxGeometry width="50" height="50" relative="1" as="geometry">
                        <mxPoint x="77.648232278141" y="76.648232278141" as="sourcePoint"/>
                        <mxPoint x="64.5" y="63.50000000000003" as="targetPoint"/>
                    </mxGeometry>
                </mxCell>
                <mxCell id="QkMMztbyLHLMfnuU3-ys-79" value="&lt;font style=&quot;font-size: 8px&quot;&gt;a[0]&lt;/font&gt;" style="text;html=1;strokeColor=none;fillColor=none;align=center;verticalAlign=middle;whiteSpace=wrap;rounded=0;spacing=0;" vertex="1" parent="QkMMztbyLHLMfnuU3-ys-71">
                    <mxGeometry x="69.25" y="9" width="26" height="4" as="geometry"/>
                </mxCell>
                <mxCell id="QkMMztbyLHLMfnuU3-ys-80" value="&lt;font style=&quot;font-size: 8px&quot;&gt;a[2]&lt;/font&gt;" style="text;html=1;strokeColor=none;fillColor=none;align=center;verticalAlign=middle;whiteSpace=wrap;rounded=0;spacing=0;" vertex="1" parent="QkMMztbyLHLMfnuU3-ys-71">
                    <mxGeometry x="39" y="94" width="26" height="4" as="geometry"/>
                </mxCell>
                <mxCell id="QkMMztbyLHLMfnuU3-ys-81" value="&lt;font style=&quot;font-size: 8px&quot;&gt;a[3]&lt;/font&gt;" style="text;html=1;strokeColor=none;fillColor=none;align=center;verticalAlign=middle;whiteSpace=wrap;rounded=0;spacing=0;" vertex="1" parent="QkMMztbyLHLMfnuU3-ys-71">
                    <mxGeometry x="-17" y="60" width="26" height="4" as="geometry"/>
                </mxCell>
                <mxCell id="QkMMztbyLHLMfnuU3-ys-82" value="&lt;font style=&quot;font-size: 8px&quot;&gt;a[4]&lt;/font&gt;" style="text;html=1;strokeColor=none;fillColor=none;align=center;verticalAlign=middle;whiteSpace=wrap;rounded=0;spacing=0;" vertex="1" parent="QkMMztbyLHLMfnuU3-ys-71">
                    <mxGeometry x="2.75" y="9" width="26" height="4" as="geometry"/>
                </mxCell>
                <mxCell id="QkMMztbyLHLMfnuU3-ys-83" value="&lt;font style=&quot;font-size: 8px&quot;&gt;39&lt;/font&gt;" style="text;html=1;strokeColor=none;fillColor=none;align=center;verticalAlign=middle;whiteSpace=wrap;rounded=0;spacing=0;" vertex="1" parent="QkMMztbyLHLMfnuU3-ys-71">
                    <mxGeometry x="54" y="21" width="26" height="4" as="geometry"/>
                </mxCell>
                <mxCell id="QkMMztbyLHLMfnuU3-ys-84" value="&lt;font style=&quot;font-size: 8px&quot;&gt;71&lt;/font&gt;" style="text;html=1;strokeColor=none;fillColor=none;align=center;verticalAlign=middle;whiteSpace=wrap;rounded=0;spacing=0;" vertex="1" parent="QkMMztbyLHLMfnuU3-ys-71">
                    <mxGeometry x="67" y="51" width="26" height="4" as="geometry"/>
                </mxCell>
                <mxCell id="QkMMztbyLHLMfnuU3-ys-85" value="&lt;font style=&quot;font-size: 8px&quot;&gt;20&lt;/font&gt;" style="text;html=1;strokeColor=none;fillColor=none;align=center;verticalAlign=middle;whiteSpace=wrap;rounded=0;spacing=0;" vertex="1" parent="QkMMztbyLHLMfnuU3-ys-71">
                    <mxGeometry x="18" y="21" width="26" height="4" as="geometry"/>
                </mxCell>
                <mxCell id="QkMMztbyLHLMfnuU3-ys-103" value="&lt;font style=&quot;font-size: 8px&quot;&gt;87&lt;/font&gt;" style="text;html=1;strokeColor=none;fillColor=none;align=center;verticalAlign=middle;whiteSpace=wrap;rounded=0;spacing=0;" vertex="1" parent="QkMMztbyLHLMfnuU3-ys-71">
                    <mxGeometry x="39" y="76" width="26" height="4" as="geometry"/>
                </mxCell>
                <mxCell id="QkMMztbyLHLMfnuU3-ys-86" value="&lt;font style=&quot;font-size: 8px&quot;&gt;a[1]&lt;/font&gt;" style="text;html=1;strokeColor=none;fillColor=none;align=center;verticalAlign=middle;whiteSpace=wrap;rounded=0;spacing=0;" vertex="1" parent="rU7rjYSOn0yy5Q8A3F-N-1">
                    <mxGeometry x="482" y="369" width="26" height="4" as="geometry"/>
                </mxCell>
                <mxCell id="QkMMztbyLHLMfnuU3-ys-105" value="" style="group" vertex="1" connectable="0" parent="rU7rjYSOn0yy5Q8A3F-N-1">
                    <mxGeometry x="236" y="427" width="98" height="98" as="geometry"/>
                </mxCell>
                <mxCell id="QkMMztbyLHLMfnuU3-ys-106" value="" style="ellipse;whiteSpace=wrap;html=1;aspect=fixed;strokeColor=#FFFF66;fillColor=none;" vertex="1" parent="QkMMztbyLHLMfnuU3-ys-105">
                    <mxGeometry x="9" y="9" width="80" height="80" as="geometry"/>
                </mxCell>
                <mxCell id="QkMMztbyLHLMfnuU3-ys-107" value="" style="ellipse;whiteSpace=wrap;html=1;aspect=fixed;strokeColor=#FFFF66;fillColor=none;" vertex="1" parent="QkMMztbyLHLMfnuU3-ys-105">
                    <mxGeometry x="28.75" y="28.75" width="40.5" height="40.5" as="geometry"/>
                </mxCell>
                <mxCell id="QkMMztbyLHLMfnuU3-ys-108" value="" style="endArrow=none;html=1;" edge="1" parent="QkMMztbyLHLMfnuU3-ys-105">
                    <mxGeometry width="50" height="50" relative="1" as="geometry">
                        <mxPoint x="49.25307977159861" y="9.772597594346394" as="sourcePoint"/>
                        <mxPoint x="48.75" y="28.75" as="targetPoint"/>
                    </mxGeometry>
                </mxCell>
                <mxCell id="QkMMztbyLHLMfnuU3-ys-109" value="" style="endArrow=none;html=1;exitX=0.981;exitY=0.309;exitDx=0;exitDy=0;exitPerimeter=0;" edge="1" parent="QkMMztbyLHLMfnuU3-ys-105" source="QkMMztbyLHLMfnuU3-ys-106">
                    <mxGeometry width="50" height="50" relative="1" as="geometry">
                        <mxPoint x="92.25" y="32.5" as="sourcePoint"/>
                        <mxPoint x="69.25" y="46.47999999999999" as="targetPoint"/>
                    </mxGeometry>
                </mxCell>
                <mxCell id="QkMMztbyLHLMfnuU3-ys-110" value="" style="endArrow=none;html=1;exitX=0.023;exitY=0.343;exitDx=0;exitDy=0;exitPerimeter=0;" edge="1" parent="QkMMztbyLHLMfnuU3-ys-105" source="QkMMztbyLHLMfnuU3-ys-106">
                    <mxGeometry width="50" height="50" relative="1" as="geometry">
                        <mxPoint x="12.287999999999954" y="36.50400000000006" as="sourcePoint"/>
                        <mxPoint x="28.75" y="45.90000000000002" as="targetPoint"/>
                    </mxGeometry>
                </mxCell>
                <mxCell id="QkMMztbyLHLMfnuU3-ys-111" value="" style="endArrow=none;html=1;exitX=0.133;exitY=0.849;exitDx=0;exitDy=0;exitPerimeter=0;" edge="1" parent="QkMMztbyLHLMfnuU3-ys-105" source="QkMMztbyLHLMfnuU3-ys-106">
                    <mxGeometry width="50" height="50" relative="1" as="geometry">
                        <mxPoint x="18.503999999999984" y="78.30000000000008" as="sourcePoint"/>
                        <mxPoint x="33.46" y="63.500000000000014" as="targetPoint"/>
                    </mxGeometry>
                </mxCell>
                <mxCell id="QkMMztbyLHLMfnuU3-ys-112" value="" style="endArrow=none;html=1;exitX=1;exitY=1;exitDx=0;exitDy=0;" edge="1" parent="QkMMztbyLHLMfnuU3-ys-105">
                    <mxGeometry width="50" height="50" relative="1" as="geometry">
                        <mxPoint x="77.648232278141" y="76.648232278141" as="sourcePoint"/>
                        <mxPoint x="64.5" y="63.50000000000003" as="targetPoint"/>
                    </mxGeometry>
                </mxCell>
                <mxCell id="QkMMztbyLHLMfnuU3-ys-113" value="&lt;font style=&quot;font-size: 8px&quot;&gt;a[0]&lt;/font&gt;" style="text;html=1;strokeColor=none;fillColor=none;align=center;verticalAlign=middle;whiteSpace=wrap;rounded=0;spacing=0;" vertex="1" parent="QkMMztbyLHLMfnuU3-ys-105">
                    <mxGeometry x="69.25" y="9" width="26" height="4" as="geometry"/>
                </mxCell>
                <mxCell id="QkMMztbyLHLMfnuU3-ys-114" value="&lt;font style=&quot;font-size: 8px&quot;&gt;a[2]&lt;/font&gt;" style="text;html=1;strokeColor=none;fillColor=none;align=center;verticalAlign=middle;whiteSpace=wrap;rounded=0;spacing=0;" vertex="1" parent="QkMMztbyLHLMfnuU3-ys-105">
                    <mxGeometry x="36" y="92" width="26" height="4" as="geometry"/>
                </mxCell>
                <mxCell id="QkMMztbyLHLMfnuU3-ys-115" value="&lt;font style=&quot;font-size: 8px&quot;&gt;a[3]&lt;/font&gt;" style="text;html=1;strokeColor=none;fillColor=none;align=center;verticalAlign=middle;whiteSpace=wrap;rounded=0;spacing=0;" vertex="1" parent="QkMMztbyLHLMfnuU3-ys-105">
                    <mxGeometry x="-17" y="60" width="26" height="4" as="geometry"/>
                </mxCell>
                <mxCell id="QkMMztbyLHLMfnuU3-ys-116" value="&lt;font style=&quot;font-size: 8px&quot;&gt;a[4]&lt;/font&gt;" style="text;html=1;strokeColor=none;fillColor=none;align=center;verticalAlign=middle;whiteSpace=wrap;rounded=0;spacing=0;" vertex="1" parent="QkMMztbyLHLMfnuU3-ys-105">
                    <mxGeometry x="2.75" y="9" width="26" height="4" as="geometry"/>
                </mxCell>
                <mxCell id="QkMMztbyLHLMfnuU3-ys-117" value="&lt;font style=&quot;font-size: 8px&quot;&gt;39&lt;/font&gt;" style="text;html=1;strokeColor=none;fillColor=none;align=center;verticalAlign=middle;whiteSpace=wrap;rounded=0;spacing=0;" vertex="1" parent="QkMMztbyLHLMfnuU3-ys-105">
                    <mxGeometry x="54" y="21" width="26" height="4" as="geometry"/>
                </mxCell>
                <mxCell id="QkMMztbyLHLMfnuU3-ys-118" value="&lt;font style=&quot;font-size: 8px&quot;&gt;43&lt;/font&gt;" style="text;html=1;strokeColor=none;fillColor=none;align=center;verticalAlign=middle;whiteSpace=wrap;rounded=0;spacing=0;" vertex="1" parent="QkMMztbyLHLMfnuU3-ys-105">
                    <mxGeometry x="67" y="51" width="26" height="4" as="geometry"/>
                </mxCell>
                <mxCell id="QkMMztbyLHLMfnuU3-ys-119" value="&lt;font style=&quot;font-size: 8px&quot;&gt;20&lt;/font&gt;" style="text;html=1;strokeColor=none;fillColor=none;align=center;verticalAlign=middle;whiteSpace=wrap;rounded=0;spacing=0;" vertex="1" parent="QkMMztbyLHLMfnuU3-ys-105">
                    <mxGeometry x="18" y="21" width="26" height="4" as="geometry"/>
                </mxCell>
                <mxCell id="QkMMztbyLHLMfnuU3-ys-120" value="&lt;font style=&quot;font-size: 8px&quot;&gt;71&lt;/font&gt;" style="text;html=1;strokeColor=none;fillColor=none;align=center;verticalAlign=middle;whiteSpace=wrap;rounded=0;spacing=0;" vertex="1" parent="QkMMztbyLHLMfnuU3-ys-105">
                    <mxGeometry x="39" y="76" width="26" height="4" as="geometry"/>
                </mxCell>
                <mxCell id="QkMMztbyLHLMfnuU3-ys-121" value="&lt;font style=&quot;font-size: 8px&quot;&gt;87&lt;/font&gt;" style="text;html=1;strokeColor=none;fillColor=none;align=center;verticalAlign=middle;whiteSpace=wrap;rounded=0;spacing=0;" vertex="1" parent="QkMMztbyLHLMfnuU3-ys-105">
                    <mxGeometry x="9" y="55" width="26" height="4" as="geometry"/>
                </mxCell>
                <mxCell id="QkMMztbyLHLMfnuU3-ys-122" value="&lt;font style=&quot;font-size: 8px&quot;&gt;a[1]&lt;/font&gt;" style="text;html=1;strokeColor=none;fillColor=none;align=center;verticalAlign=middle;whiteSpace=wrap;rounded=0;spacing=0;" vertex="1" parent="rU7rjYSOn0yy5Q8A3F-N-1">
                    <mxGeometry x="321" y="480" width="26" height="4" as="geometry"/>
                </mxCell>
            </root>
        </mxGraphModel>
    </diagram>
</mxfile>